<svg width="24" height="24" viewBox="0 0 24 24" fill="none" xmlns="http://www.w3.org/2000/svg">
<path d="M6.375 3.75L6.14062 4.05469L3.75 7.24219V20.25H20.25V7.24219L17.8594 4.05469L17.625 3.75H6.375ZM7.125 5.25H11.25V6.75H6L7.125 5.25ZM12.75 5.25H16.875L18 6.75H12.75V5.25ZM5.25 8.25H18.75V18.75H5.25V8.25ZM9.60938 9.75C9.19629 9.78809 8.8916 10.1572 8.92969 10.5703C8.96777 10.9834 9.33691 11.2881 9.75 11.25H14.25C14.5195 11.2529 14.7715 11.1123 14.9092 10.8779C15.0439 10.6436 15.0439 10.3564 14.9092 10.1221C14.7715 9.8877 14.5195 9.74707 14.25 9.75H9.75C9.72656 9.75 9.70312 9.75 9.67969 9.75C9.65625 9.75 9.63281 9.75 9.60938 9.75Z" fill="black"/>
</svg>
