<svg width="21" height="21" viewBox="0 0 21 21" fill="none" xmlns="http://www.w3.org/2000/svg">
<path d="M18.5 9.75C18.5 12.18 17.52 14.35 15.94 15.94C14.35 17.53 12.18 18.5 9.75 18.5C4.91 18.5 1 14.59 1 9.75C1 4.91 4.91 1 9.75 1C14.59 1 18.5 4.91 18.5 9.75Z" stroke="#3B3B3D" stroke-width="1.5" stroke-miterlimit="10"/>
<path d="M17.15 16.1L20.24 18.01C20.99 18.47 21.23 19.47 20.75 20.22C20.27 20.97 19.29 21.21 18.54 20.73C18.33 20.59 18.15 20.42 18.03 20.22L16.12 17.13C15.89 16.78 16.01 16.3 16.36 16.09C16.61 15.94 16.92 15.94 17.16 16.09L17.15 16.1Z" fill="#3B3B3D"/>
</svg>
