<svg width="846" height="503" viewBox="0 0 846 503" fill="none" xmlns="http://www.w3.org/2000/svg">
<path d="M843.411 481.61C855.941 448.496 803.376 457.042 801.556 457.952L798.826 481.61C683.086 501.264 579.539 489.799 542.233 481.609V430.655L445.783 481.609C381.726 485.977 345.66 463.999 330.226 455.222L339.325 425.195L210.118 476.15L168.263 447.943C146.122 454.009 93.6506 468.689 60.894 478.88C28.1375 489.071 38.1464 493.438 47.2454 494.348C307.478 500.717 830.673 515.276 843.411 481.61Z" fill="#A0A0A0"/>
<path d="M716.026 124.928C719.059 137.06 717.846 160.414 688.729 156.774C659.612 153.135 672.351 102.18 698.738 108.549" stroke="black" stroke-width="5" stroke-linecap="round"/>
<path d="M592.278 45.7658C637.47 50.3153 739.501 55.4108 786.088 39.3965" stroke="black" stroke-width="5" stroke-linecap="round"/>
<path d="M806.105 20.2882L798.854 486.151C798.838 487.186 798.081 488.034 797.048 488.109C735.466 492.582 602.171 497.204 543.701 481.112C542.815 480.869 542.256 480.055 542.29 479.137L559.449 9.52115C559.489 8.42793 560.354 7.56877 561.448 7.59213C602.515 8.46936 704.255 8.73157 798.826 3" stroke="black" stroke-width="5" stroke-linecap="round"/>
<path d="M595.917 456.132C630.797 456.435 708.2 455.586 738.772 449.763" stroke="black" stroke-width="5" stroke-linecap="round"/>
<path d="M378.451 445.213C383.91 447.336 397.923 452.674 410.297 457.042" stroke="black" stroke-width="5" stroke-linecap="round"/>
<path d="M482.18 73.0625C489.156 76.7021 504.927 82.8895 512.207 78.5219" stroke="black" stroke-width="5" stroke-linecap="round"/>
<path d="M470.914 25.0453L557.891 54.5649C559.888 55.2428 559.58 58.0161 557.477 58.1688C510.717 61.5649 476.568 38.3037 469.085 27.0536C468.231 25.7692 469.453 24.5495 470.914 25.0453Z" fill="#A0A0A0"/>
<path d="M551.333 95.8104L444.874 479.79C404.11 487.069 352.064 466.445 331.136 455.222C344.966 401.356 428.799 140.699 467.621 21.1982L554.972 51.2251" stroke="black" stroke-width="5" stroke-linecap="round"/>
<path d="M408.477 159.503L361.92 122.608C361.016 121.892 359.695 122.087 359.036 123.033L155.524 415.186" stroke="black" stroke-width="5" stroke-linecap="round"/>
<path d="M147.335 429.745L211.938 476.15L412.117 169.513" stroke="black" stroke-width="5" stroke-linecap="round"/>
<path d="M10.8493 452.493C16.1863 461.388 29.8711 478.979 42.723 479.763C43.2851 479.797 43.8219 479.553 44.2009 479.136L308.749 188.404C309.535 187.54 309.423 186.195 308.512 185.464C301.596 179.917 288.889 168.664 280.703 157.823C279.944 156.819 278.462 156.71 277.592 157.62L2.66016 445.214" stroke="black" stroke-width="5" stroke-linecap="round"/>
<circle cx="32.6865" cy="447.943" r="3.63962" fill="black"/>
<circle cx="189.19" cy="440.664" r="3.63962" fill="black"/>
<circle cx="371.172" cy="162.233" r="3.63962" fill="black"/>
<circle cx="282" cy="182.251" r="3.63962" fill="black"/>
<path d="M279.271 157.684L343.875 141.306" stroke="black" stroke-width="5" stroke-linecap="round"/>
<path d="M361.163 123.107L442.144 97.6299" stroke="black" stroke-width="5" stroke-linecap="round"/>
</svg>
