<svg width="5000" height="1500" viewBox="0 0 2000 1500" fill="none" xmlns="http://www.w3.org/2000/svg">
<rect width="2000" height="1500" rx="50" fill="none"/>
<path d="M1099.02 741.499C1108.42 756.573 1112.18 765.037 1125.34 784.774" stroke="black" stroke-width="5" stroke-linecap="round"/>
<path d="M1128.01 721C1137.41 736.074 1142.26 743.458 1155.42 763.195" stroke="black" stroke-width="5" stroke-linecap="round"/>
<path d="M1327.41 874.061C1316.44 849.938 1287 799.437 1256.92 790.414C1219.33 779.136 1186.43 762.219 1176.09 772.557" stroke="black" stroke-width="5" stroke-linecap="round"/>
<path d="M1307.67 1000C1275.72 989.975 1206.92 957.895 1187.37 909.774" stroke="black" stroke-width="5" stroke-linecap="round"/>
<path d="M1173.27 929.512C1175.78 942.356 1186.81 963.722 1210.87 946.429" stroke="black" stroke-width="5" stroke-linecap="round"/>
<path d="M1132.86 812.03C1125.65 841.479 1121.96 892.105 1164.81 859.023" stroke="black" stroke-width="5" stroke-linecap="round"/>
<path d="M1251.28 854.323C1246.58 859.335 1233.24 865.225 1217.45 848.684C1197.71 828.007 1176.09 747.18 1136.62 767.857C1097.15 788.533 1178.91 860.902 1181.73 885.338C1184.55 909.774 1187.37 922.932 1173.27 929.511C1159.18 936.09 1146.02 925.751 1148.84 872.18" stroke="black" stroke-width="5" stroke-linecap="round"/>
<path d="M903.792 685.151C903.792 691.899 909.262 697.369 916.01 697.369C919.475 697.369 922.603 695.926 924.827 693.609L916.01 672.933C909.262 672.933 903.792 678.403 903.792 685.151Z" fill="#A0A0A0"/>
<path d="M950.785 739.662C950.785 746.409 956.255 751.88 963.003 751.88C969.112 751.88 974.173 747.397 975.078 741.541L956.424 729.364C953.033 731.535 950.785 735.336 950.785 739.662Z" fill="#A0A0A0"/>
<circle cx="1034.18" cy="630.64" r="103.703" stroke="black" stroke-width="5"/>
<circle cx="1034.18" cy="630.639" r="128.139" stroke="black" stroke-width="5"/>
<path d="M1014.51 759C1010.38 770.518 1006.65 777.775 1001.6 784.823C1000.86 785.86 1001.07 787.3 1002.06 788.099C1016.59 799.783 1036.3 829.297 1010.89 865.188C984.614 902.299 937.064 882.301 917.099 866.941C916.758 866.679 916.513 866.331 916.368 865.926L857.38 701.281C857.256 700.935 857.216 700.568 857.268 700.204C860.872 675.217 876.326 644.409 905.009 632.5" stroke="#A0A0A0" stroke-width="7" stroke-linecap="round"/>
<path d="M1062.56 725.802C1068.37 681.825 1055.37 632.607 994.636 603.911C976.901 595.532 960.621 591.559 945.843 590.986" stroke="black" stroke-width="7" stroke-linecap="round"/>
<path d="M729.848 721.029C693.682 797.576 762.524 843.693 800.419 854.012C801.65 854.347 802.374 855.587 802.113 856.836C798.309 875.089 801.831 910.399 844.252 921.989C888.114 933.972 912.146 888.328 917.814 863.784C917.911 863.365 917.879 862.941 917.734 862.536L858.745 697.891C858.621 697.545 858.421 697.238 858.149 696.991C828.129 669.645 762.326 652.285 729.848 721.029Z" stroke="#A0A0A0" stroke-width="7" stroke-linecap="round"/>
<path d="M860.454 672.918C852.171 656.762 843.649 612.091 875.822 562.65" stroke="#A0A0A0" stroke-width="7" stroke-linecap="round"/>
<path d="M848.152 683.406C844.291 665.666 822.505 625.747 766.256 607.986" stroke="#A0A0A0" stroke-width="7" stroke-linecap="round"/>
<circle cx="795.709" cy="717.105" r="12.218" fill="#A0A0A0"/>
<circle cx="765.634" cy="762.218" r="12.218" fill="#A0A0A0"/>
<circle cx="816.386" cy="765.978" r="12.218" fill="#A0A0A0"/>
<circle cx="850.221" cy="875" r="12.218" fill="#A0A0A0"/>
<circle cx="869.018" cy="833.647" r="12.218" fill="#A0A0A0"/>
<circle cx="823.906" cy="822.368" r="12.218" fill="#A0A0A0"/>
<circle cx="910.371" cy="730.263" r="12.218" fill="#A0A0A0"/>
<circle cx="963.003" cy="848.684" r="12.218" fill="#A0A0A0"/>
<circle cx="993.078" cy="812.97" r="12.218" fill="#A0A0A0"/>
<circle cx="1028.79" cy="685.15" r="15.9774" fill="black"/>
<circle cx="978.041" cy="647.557" r="15.9774" fill="black"/>
<circle cx="946.085" cy="788.533" r="12.218" fill="#A0A0A0"/>
</svg>
