<svg width="546" height="506" viewBox="0 0 546 506" fill="none" xmlns="http://www.w3.org/2000/svg">
<path d="M82.1215 376.169V334.605V286.2C82.1215 274.445 83.7853 264.188 69.6347 263.381C55.4841 262.574 48.7457 278.594 24.4874 273.062C11.6847 270.142 0.903333 257.158 0.90332 241.945C0.903298 215.668 29.422 199.814 56.8316 217.051C82.1215 232.955 82.1215 203.221 82.1215 193.54V129.157C82.1215 128.052 83.0169 127.157 84.1215 127.157H177.806C196.674 128.54 185.219 149.976 179.828 163.114C169.046 189.391 183.646 204.143 193.978 208.062C230.366 217.051 239.126 178.327 226.997 163.114C210.412 142.314 214.867 129.231 222.953 129.231H313.118C314.28 129.231 315.199 130.211 315.151 131.372C314.683 142.478 315.269 170.303 315.269 197.689C315.269 233.647 347.613 221.891 347.613 222.583C347.613 223.274 396.079 209.671 400.173 247.477C402.868 272.371 376.588 288.275 347.613 279.285C324.433 272.093 320.66 280.668 320.66 288.275V376.169C320.66 377.273 319.764 378.169 318.66 378.169H218.013C217.315 378.169 216.657 377.792 216.304 377.19C203.767 355.748 215.469 345.962 222.28 329.073C230.366 309.02 221.528 292.319 208.129 288.275C190.609 282.986 159.613 292.424 172.416 329.073C182.289 357.334 181.849 378.169 165.677 378.169H84.1215C83.0169 378.169 82.1215 377.273 82.1215 376.169Z" fill="black"/>
<path d="M313.677 132.554H391.275C400.722 132.554 417.952 123.945 412.193 89.3877C406.12 52.9481 435.095 53.2514 447.28 57.6704C453.578 59.9219 464.285 69.4176 456.727 89.3877C447.28 114.35 453.353 133.926 472.922 133.926H541.097C542.202 133.926 543.097 134.821 543.097 135.926V372.775C543.097 373.887 542.218 374.786 541.106 374.776C529.666 374.672 472.439 374.188 462.125 374.795C450.654 375.469 452.645 387.987 459.426 403.809C469.548 427.426 459.088 456.243 425.013 450.368C405.445 446.994 397.348 426.077 405.445 403.809C413.542 381.542 404.096 374.795 395.324 374.795C377.502 374.795 335.811 374.57 318.042 374.795" stroke="black" stroke-width="5" stroke-linecap="round"/>
<path d="M324.115 451.043C328.389 458.465 337.206 474.525 338.285 479.383" stroke="black" stroke-width="5" stroke-linecap="round"/>
<path d="M307.246 455.092C304.997 461.165 303.872 479.248 317.368 503" stroke="black" stroke-width="5" stroke-linecap="round"/>
<path d="M281.605 451.043C272.833 459.14 254.885 478.034 253.265 488.83" stroke="black" stroke-width="5" stroke-linecap="round"/>
<path d="M309.945 54.957C318.717 46.8599 336.666 27.9665 338.285 17.1703" stroke="black" stroke-width="5" stroke-linecap="round"/>
<path d="M284.304 50.9082C286.553 44.8353 287.678 26.7517 274.183 2.99997" stroke="black" stroke-width="5" stroke-linecap="round"/>
<path d="M267.435 54.957C263.162 47.5346 254.345 31.4753 253.265 26.617" stroke="black" stroke-width="5" stroke-linecap="round"/>
</svg>
