
     <svg
                width="20"
                height="20"
                viewBox="0 0 20 20"
                fill="none"
                xmlns="http://www.w3.org/2000/svg"
              >
                <g clip-path="url(#clip0)">
                  <path
                    d="M12.1113 2.39043C13.399 1.06162 15.6284 2.20735 15.2976 4.02792C15.0866 5.1888 15.9892 6.25299 17.1689 6.23446C19.0191 6.20538 19.7853 8.59198 18.2641 9.64539C17.2941 10.3171 17.1797 11.7078 18.0271 12.5289C19.3559 13.8166 18.2101 16.046 16.3896 15.7152C15.2287 15.5042 14.1645 16.4068 14.183 17.5865C14.2121 19.4366 11.8255 20.2029 10.7721 18.6817C10.1004 17.7116 8.7097 17.5973 7.8886 18.4446C6.60091 19.7735 4.37149 18.6277 4.7023 16.8072C4.91325 15.6463 4.01072 14.5821 2.83098 14.6006C0.980832 14.6297 0.214548 12.2431 1.7358 11.1897C2.70583 10.518 2.82015 9.12729 1.97283 8.3062C0.644027 7.0185 1.78976 4.78908 3.61032 5.1199C4.7712 5.33084 5.8354 4.42831 5.81686 3.24857C5.78779 1.39842 8.17439 0.632141 9.2278 2.15339C9.8995 3.12342 11.2902 3.23774 12.1113 2.39043Z"
                    fill="#3D85E1"
                  ></path>
                  <path
                    d="M6.34521 10.5007L8.42855 12.7923L12.5952 8.20898"
                    stroke="white"
                    stroke-width="2"
                    stroke-linecap="round"
                    stroke-linejoin="round"
                  ></path>
                </g>
                <defs>
                  <clipPath id="clip0">
                    <rect width="20" height="20" fill="white"></rect>
                  </clipPath>
                </defs>
              </svg>
