<svg width="461" height="426" viewBox="0 0 461 426" fill="none" xmlns="http://www.w3.org/2000/svg">
<g clip-path="url(#clip0_1_349)">
<path d="M241.561 107.552C241.113 107.674 240.732 107.969 240.502 108.371C240.271 108.774 240.21 109.252 240.332 109.699C240.332 109.699 241.616 114.541 240.903 119.619C240.547 122.158 239.701 124.694 238.048 126.742C236.395 128.791 233.939 130.433 229.959 131.173C229.733 131.215 229.518 131.301 229.325 131.426C229.132 131.551 228.966 131.713 228.836 131.903C228.706 132.092 228.614 132.305 228.566 132.53C228.518 132.755 228.515 132.987 228.557 133.213C228.599 133.439 228.685 133.654 228.811 133.847C228.936 134.04 229.098 134.206 229.288 134.336C229.477 134.466 229.691 134.557 229.916 134.605C230.14 134.652 230.372 134.655 230.598 134.613C235.267 133.745 238.601 131.628 240.771 128.94C242.941 126.252 243.951 123.076 244.368 120.104C245.203 114.16 243.71 108.783 243.71 108.783C243.65 108.561 243.547 108.353 243.406 108.171C243.265 107.989 243.09 107.836 242.891 107.722C242.691 107.608 242.471 107.534 242.243 107.505C242.015 107.476 241.783 107.492 241.561 107.552Z" fill="black"/>
<path d="M259.626 142.093C259.172 142.188 258.773 142.458 258.519 142.846C253.9 149.896 248.202 151.188 243.367 150.934C238.533 150.681 234.809 148.703 234.809 148.703C234.4 148.483 233.921 148.435 233.477 148.569C233.032 148.703 232.659 149.008 232.44 149.417C232.22 149.825 232.172 150.305 232.306 150.749C232.44 151.193 232.745 151.566 233.153 151.786C233.153 151.786 237.489 154.131 243.185 154.429C248.881 154.728 256.182 152.8 261.447 144.764C261.701 144.376 261.79 143.903 261.696 143.449C261.601 142.995 261.33 142.597 260.942 142.342C260.75 142.216 260.535 142.129 260.309 142.087C260.083 142.044 259.851 142.046 259.626 142.093Z" fill="black"/>
<path d="M265.25 108.109C264.788 108.063 264.327 108.201 263.968 108.495C263.609 108.788 263.381 109.213 263.334 109.674C263.004 112.94 263.846 115.59 265.478 117.318C267.111 119.045 269.401 119.763 271.593 119.636C273.784 119.51 275.949 118.571 277.526 116.871C279.103 115.17 280.018 112.671 279.684 109.803C279.658 109.574 279.587 109.353 279.475 109.152C279.363 108.951 279.213 108.775 279.032 108.632C278.852 108.489 278.645 108.383 278.424 108.321C278.203 108.258 277.972 108.239 277.743 108.266C277.282 108.32 276.862 108.554 276.574 108.918C276.286 109.281 276.155 109.745 276.208 110.205C276.435 112.164 275.873 113.507 274.96 114.492C274.046 115.477 272.703 116.067 271.391 116.143C270.079 116.218 268.868 115.81 268.022 114.915C267.176 114.02 266.561 112.549 266.815 110.026C266.839 109.797 266.816 109.567 266.75 109.346C266.684 109.126 266.575 108.921 266.43 108.743C266.285 108.565 266.106 108.417 265.903 108.309C265.701 108.2 265.479 108.132 265.25 108.109Z" fill="black"/>
<path d="M229.28 108.846C228.818 108.887 228.391 109.11 228.093 109.465C227.795 109.821 227.651 110.281 227.691 110.743C227.897 113.088 227.3 114.545 226.43 115.497C225.56 116.449 224.313 116.946 222.962 116.967C220.259 117.009 217.434 115.312 217.265 111.374C217.255 111.144 217.2 110.919 217.103 110.711C217.006 110.502 216.869 110.315 216.699 110.16C216.53 110.004 216.332 109.884 216.116 109.805C215.9 109.726 215.67 109.691 215.441 109.701C215.211 109.711 214.986 109.766 214.777 109.863C214.569 109.96 214.382 110.097 214.226 110.266C214.071 110.436 213.951 110.634 213.872 110.85C213.793 111.066 213.758 111.295 213.767 111.525C214.012 117.209 218.624 120.533 223.016 120.466C225.212 120.431 227.429 119.592 229.014 117.857C230.599 116.122 231.45 113.543 231.177 110.435C231.136 109.973 230.914 109.546 230.558 109.248C230.202 108.95 229.743 108.805 229.28 108.846Z" fill="black"/>
<path d="M223.826 99.0107C215.315 99.0107 208.377 105.948 208.377 114.458C208.377 122.969 215.315 129.906 223.826 129.906C232.338 129.906 239.276 122.969 239.276 114.458C239.276 105.948 232.338 99.0107 223.826 99.0107ZM223.826 102.517C230.443 102.517 235.769 107.843 235.769 114.458C235.769 121.074 230.443 126.4 223.826 126.4C217.21 126.4 211.883 121.074 211.883 114.458C211.883 107.843 217.21 102.517 223.826 102.517Z" fill="black"/>
<path d="M270.105 96.5686C261.064 96.5686 253.697 103.936 253.697 112.976C253.697 122.016 261.064 129.381 270.105 129.381C279.146 129.381 286.514 122.016 286.514 112.976C286.514 103.936 279.146 96.5685 270.105 96.5686ZM270.105 100.062C277.258 100.062 283.02 105.824 283.02 112.976C283.02 120.128 277.258 125.888 270.105 125.888C262.952 125.888 257.191 120.128 257.191 112.976C257.191 105.824 262.952 100.062 270.105 100.062Z" fill="black"/>
<path d="M246.051 99.1155C241.683 98.7209 237.175 100.302 232.619 103.421C232.429 103.551 232.267 103.717 232.142 103.909C232.016 104.102 231.93 104.317 231.887 104.543C231.845 104.769 231.848 105.001 231.895 105.226C231.943 105.451 232.034 105.664 232.164 105.854C232.294 106.043 232.46 106.206 232.652 106.331C232.845 106.457 233.06 106.543 233.286 106.585C233.512 106.627 233.744 106.625 233.969 106.577C234.194 106.53 234.407 106.439 234.597 106.309C238.722 103.485 242.419 102.302 245.736 102.601C249.052 102.901 252.18 104.65 255.271 108.35C255.568 108.706 255.995 108.929 256.457 108.97C256.92 109.012 257.379 108.868 257.735 108.57C258.091 108.273 258.315 107.846 258.356 107.384C258.397 106.922 258.253 106.462 257.956 106.106C254.453 101.913 250.419 99.5101 246.051 99.1155Z" fill="black"/>
<path d="M271.87 86.1751C267.827 85.8692 263.656 86.9049 259.537 89.1137C259.335 89.2223 259.155 89.3698 259.01 89.5476C258.864 89.7255 258.755 89.9302 258.689 90.1502C258.622 90.3703 258.6 90.6011 258.623 90.8298C258.646 91.0585 258.713 91.2804 258.822 91.4829C258.93 91.6855 259.078 91.8647 259.256 92.0102C259.434 92.1558 259.638 92.2649 259.858 92.3314C260.078 92.3978 260.309 92.4202 260.538 92.3974C260.767 92.3745 260.989 92.3068 261.191 92.1982C268.578 88.2366 274.83 88.4016 281.129 93.9204C281.478 94.2261 281.935 94.3808 282.398 94.3501C282.861 94.3195 283.293 94.1061 283.599 93.757C283.905 93.4079 284.059 92.9518 284.028 92.4888C283.998 92.0257 283.785 91.5937 283.435 91.2879C279.829 88.1281 275.913 86.4811 271.87 86.1751Z" fill="black"/>
<path d="M227.025 87.358C219.402 87.2281 213.547 90.0817 209.618 95.3871C209.342 95.76 209.226 96.2273 209.294 96.6861C209.363 97.145 209.61 97.5579 209.983 97.8341C210.168 97.971 210.378 98.0701 210.601 98.1259C210.824 98.1816 211.056 98.193 211.283 98.1592C211.511 98.1253 211.729 98.047 211.926 97.9286C212.123 97.8103 212.295 97.6541 212.432 97.4693C216.874 91.4708 223.508 89.2014 234.389 91.8999C234.84 92.0112 235.316 91.9391 235.713 91.6994C236.111 91.4597 236.396 91.0721 236.508 90.6217C236.619 90.1714 236.548 89.6954 236.308 89.2981C236.069 88.9008 235.681 88.6148 235.231 88.503C232.304 87.7769 229.566 87.4014 227.025 87.358Z" fill="black"/>
<path d="M299.251 120.632C298.788 120.603 298.332 120.758 297.984 121.065C297.636 121.372 297.424 121.804 297.394 122.267C296.479 136.604 292.16 146.22 285.21 152.341C285.037 152.493 284.896 152.677 284.795 152.884C284.694 153.09 284.634 153.314 284.619 153.544C284.605 153.773 284.636 154.003 284.71 154.221C284.784 154.439 284.901 154.639 285.053 154.812C285.36 155.16 285.793 155.372 286.256 155.401C286.719 155.43 287.174 155.274 287.523 154.967C295.303 148.114 299.933 137.432 300.886 122.489C300.916 122.026 300.76 121.57 300.453 121.222C300.147 120.874 299.714 120.662 299.251 120.632Z" fill="black"/>
<path d="M309.451 100.259C308.752 100.343 308.045 100.531 307.351 100.828C304.351 102.108 302.297 105.086 300.736 107.679C299.174 110.272 298.212 112.608 298.212 112.608C298.125 112.82 298.079 113.048 298.08 113.278C298.08 113.508 298.125 113.736 298.213 113.948C298.302 114.16 298.431 114.353 298.594 114.516C298.757 114.678 298.95 114.807 299.162 114.895C299.592 115.072 300.073 115.071 300.502 114.893C300.931 114.715 301.271 114.374 301.448 113.945C301.448 113.945 302.324 111.827 303.735 109.484C305.146 107.14 307.196 104.698 308.726 104.046C310.481 103.294 311.502 103.57 312.495 104.583C313.488 105.597 314.325 107.681 314.358 110.608C314.403 114.196 313.725 121.591 305.396 131.13C305.393 131.133 305.39 131.136 305.387 131.138C305.048 131.53 303.238 132.803 302.028 133.005C301.423 133.106 301.058 133.034 300.758 132.819C300.457 132.604 300.043 132.104 299.789 130.778C299.746 130.553 299.659 130.338 299.532 130.146C299.406 129.953 299.243 129.788 299.053 129.659C298.863 129.53 298.649 129.439 298.424 129.393C298.199 129.346 297.967 129.345 297.741 129.388C297.515 129.431 297.3 129.518 297.108 129.644C296.916 129.771 296.75 129.933 296.621 130.124C296.492 130.314 296.401 130.528 296.355 130.753C296.308 130.979 296.307 131.211 296.35 131.437C296.714 133.334 297.509 134.798 298.721 135.666C299.933 136.534 301.383 136.662 302.606 136.457C305.047 136.049 306.938 134.691 308.028 133.435C316.895 123.278 317.906 114.729 317.854 110.572C317.814 107.027 316.881 104.067 314.989 102.137C313.57 100.689 311.54 100.01 309.443 100.262L309.451 100.259Z" fill="black"/>
<path d="M228.365 0.745739C218.63 0.412027 189.835 -0.284132 168.654 27.1642C165.974 30.6406 162.553 36.456 161.752 43.944C160.951 51.4319 162.867 60.5405 170.556 70.1817C175.075 75.8381 191.75 90.2838 225.23 82.8637C232.663 81.2191 252.87 75.0872 265.889 53.2307C267.645 59.3281 271.941 71.178 281.082 79.7745C287.531 85.8401 296.081 88.6567 304.189 88.7154C312.295 88.7739 320.051 86.1053 324.896 80.8116C334.919 69.8701 341.403 49.5172 327.345 23.5676C324.191 17.7445 319.191 11.8999 312.498 8.28006C305.805 4.66015 297.378 3.36326 287.894 6.65458C282.295 8.59871 273.831 12.9557 267.508 23.7959C263.949 17.8409 252.231 1.55574 228.364 0.745739H228.365ZM228.245 4.24252C255.26 5.15937 265.959 28.0285 265.959 28.0285C266.099 28.3258 266.32 28.5776 266.597 28.755C266.874 28.9325 267.195 29.0283 267.523 29.0318C267.852 29.0352 268.175 28.9462 268.455 28.7747C268.736 28.6031 268.962 28.3561 269.109 28.0618C275.082 16.0392 283.454 11.9013 289.042 9.96105C297.667 6.96788 304.892 8.14545 310.832 11.3582C316.773 14.5708 321.388 19.9174 324.268 25.2343C337.754 50.1289 331.408 68.5216 322.315 78.4471C318.349 82.7821 311.527 85.2668 304.215 85.2139C296.904 85.1611 289.196 82.5991 283.481 77.2244C271.867 66.3019 268.246 48.4922 268.246 48.4922C268.176 48.1352 267.996 47.809 267.732 47.5587C267.468 47.3085 267.133 47.1468 266.773 47.0961C266.412 47.0453 266.045 47.108 265.722 47.2755C265.399 47.443 265.137 47.707 264.971 48.0307C252.782 71.7798 231.895 77.8047 224.476 79.4462C192.168 86.6072 177.029 72.671 173.295 67.998C166.092 58.9653 164.526 50.9399 165.235 44.3167C165.944 37.6935 169.027 32.4186 171.43 29.302C191.664 3.08149 218.559 3.91201 228.248 4.2441L228.245 4.24252Z" fill="black"/>
<path fill-rule="evenodd" clip-rule="evenodd" d="M266.528 48.8321C266.528 48.8321 270.118 67.0602 282.282 78.5006C294.446 89.941 314.796 89.259 323.607 79.6293C333.165 69.1958 339.58 49.8226 325.808 24.4005C319.774 13.2605 306.578 2.02308 288.47 8.30757C282.647 10.3293 273.739 14.8114 267.543 27.2829C267.543 27.2829 256.296 3.44406 228.305 2.49408C218.593 2.16118 190.748 1.39791 170.041 28.2329C164.957 34.8259 157.032 50.4154 171.925 69.0902C176.05 74.2542 191.958 88.447 224.854 81.1557C232.487 79.4668 254.023 73.1987 266.528 48.8321Z" fill="black"/>
<path d="M303.204 85.2156C302.975 85.2428 302.755 85.3148 302.554 85.4273C302.354 85.5398 302.177 85.6908 302.035 85.8715C301.893 86.0522 301.788 86.2592 301.726 86.4805C301.664 86.7018 301.646 86.9332 301.673 87.1614C301.673 87.1614 303.13 100.613 300.097 108.83C299.936 109.266 299.955 109.747 300.149 110.168C300.343 110.59 300.697 110.917 301.132 111.077C301.568 111.238 302.049 111.219 302.47 111.025C302.892 110.831 303.219 110.477 303.38 110.042C306.94 100.396 305.15 86.7443 305.15 86.7443C305.094 86.2836 304.858 85.8637 304.493 85.577C304.128 85.2903 303.665 85.1603 303.204 85.2156Z" fill="black"/>
<path d="M327.419 72.4765C326.963 72.5596 326.558 72.8206 326.294 73.2022C326.03 73.5838 325.928 74.0546 326.011 74.5111C326.011 74.5111 329.238 91.7928 314.675 107.254C314.518 107.421 314.395 107.618 314.313 107.833C314.232 108.048 314.193 108.277 314.2 108.506C314.207 108.736 314.259 108.962 314.354 109.172C314.448 109.381 314.583 109.57 314.75 109.728C314.918 109.885 315.114 110.009 315.329 110.09C315.544 110.172 315.773 110.21 316.003 110.203C316.233 110.196 316.459 110.144 316.668 110.05C316.878 109.955 317.067 109.82 317.224 109.653C332.87 93.0423 329.454 73.8829 329.454 73.8829C329.371 73.4267 329.11 73.0223 328.728 72.7586C328.346 72.4948 327.876 72.3934 327.419 72.4765Z" fill="black"/>
<path d="M326.331 85.444C318.844 89.7555 311.441 90.8597 303.868 90.4267C303.405 90.4005 302.95 90.5594 302.604 90.8684C302.258 91.1774 302.048 91.6111 302.022 92.0744C301.996 92.5374 302.155 92.992 302.463 93.3381C302.772 93.6842 303.205 93.8936 303.668 93.9203C311.719 94.3805 319.941 93.1628 328.077 88.4777C328.277 88.3631 328.451 88.2103 328.592 88.0281C328.732 87.846 328.835 87.6381 328.894 87.4162C328.954 87.1943 328.97 86.9628 328.94 86.7349C328.91 86.507 328.836 86.287 328.721 86.0879C328.607 85.8886 328.454 85.714 328.272 85.5739C328.09 85.4337 327.882 85.3307 327.66 85.271C327.438 85.2112 327.206 85.1957 326.978 85.2254C326.75 85.2551 326.53 85.3293 326.331 85.444Z" fill="black"/>
<path d="M324.169 92.5899C317.588 96.9354 310.85 98.4758 303.757 97.9643C303.294 97.9309 302.837 98.0827 302.486 98.3863C302.135 98.69 301.919 99.1206 301.886 99.5834C301.852 100.046 302.004 100.504 302.308 100.854C302.611 101.205 303.042 101.421 303.505 101.455C311.273 102.015 318.907 100.258 326.098 95.5094C326.29 95.3828 326.455 95.2197 326.584 95.0293C326.712 94.8389 326.802 94.6251 326.848 94.3999C326.895 94.1748 326.896 93.9427 326.852 93.717C326.809 93.4914 326.721 93.2765 326.594 93.0847C326.338 92.6975 325.939 92.4279 325.484 92.3352C325.03 92.2424 324.557 92.334 324.169 92.5899Z" fill="black"/>
<path d="M282.566 103.299C282.104 103.265 281.646 103.415 281.295 103.718C280.943 104.021 280.726 104.451 280.692 104.913C280.657 105.376 280.808 105.833 281.111 106.185C281.414 106.536 281.844 106.753 282.306 106.788L302.477 108.299C302.94 108.333 303.397 108.183 303.749 107.88C304.1 107.577 304.317 107.147 304.352 106.685C304.369 106.456 304.341 106.225 304.269 106.007C304.197 105.789 304.083 105.587 303.933 105.412C303.783 105.238 303.601 105.095 303.395 104.991C303.19 104.888 302.967 104.826 302.737 104.809L282.566 103.299Z" fill="black"/>
<path d="M193.106 123.187C192.879 123.219 192.659 123.295 192.461 123.411C192.263 123.527 192.09 123.682 191.951 123.865C191.812 124.048 191.711 124.257 191.654 124.48C191.596 124.702 191.582 124.934 191.614 125.161C191.614 125.161 195.635 155.274 217.91 170.415C219.781 171.685 227.987 177.592 239.453 179.452C250.919 181.313 265.82 179.055 280.852 164.695C281.187 164.374 281.382 163.933 281.393 163.469C281.403 163.005 281.229 162.556 280.909 162.221C280.75 162.054 280.56 161.921 280.349 161.828C280.139 161.735 279.912 161.684 279.683 161.679C279.453 161.674 279.224 161.714 279.009 161.797C278.795 161.88 278.599 162.005 278.433 162.164C264.093 175.864 250.593 177.715 240.015 175.999C229.436 174.282 221.952 168.928 219.877 167.519C199.243 153.495 195.079 124.678 195.079 124.678C195.015 124.219 194.771 123.803 194.401 123.523C194.032 123.244 193.566 123.122 193.106 123.186L193.106 123.187Z" fill="black"/>
<path d="M196.948 80.5564C196.496 80.45 196.02 80.5275 195.626 80.7716C195.231 81.0158 194.949 81.4066 194.843 81.8583C194.843 81.8583 193.87 85.9747 193.074 91.2275C192.678 93.8468 192.316 96.7436 192.143 99.5959C191.659 98.954 191.12 98.3362 190.507 97.7833C189.252 96.6525 187.63 95.7628 185.731 95.7265C183.638 95.6859 181.721 96.8613 180.182 98.6571C178.642 100.453 177.421 102.947 176.743 106.011C175.388 112.138 176.25 120.552 181.657 130.109C182.355 131.341 183.951 134.278 186.634 135.905C187.975 136.719 189.818 137.147 191.574 136.429C193.33 135.711 194.788 134.102 196.118 131.538C196.224 131.334 196.289 131.111 196.308 130.882C196.328 130.653 196.302 130.422 196.233 130.203C196.163 129.984 196.051 129.781 195.903 129.605C195.755 129.429 195.574 129.284 195.369 129.178C194.957 128.965 194.478 128.924 194.035 129.064C193.593 129.205 193.225 129.515 193.011 129.927C191.896 132.076 190.877 132.932 190.25 133.189C189.622 133.445 189.176 133.355 188.45 132.914C186.997 132.033 185.345 129.516 184.703 128.384C179.652 119.453 179.021 111.929 180.163 106.767C180.733 104.186 181.757 102.197 182.84 100.934C183.922 99.6717 185.005 99.2122 185.665 99.2249C186.523 99.2411 187.327 99.6278 188.164 100.383C189.001 101.137 189.796 102.241 190.442 103.38C191.732 105.657 192.415 107.968 192.415 107.968C192.54 108.392 192.822 108.753 193.204 108.978C193.585 109.203 194.037 109.275 194.47 109.18C194.902 109.085 195.282 108.829 195.534 108.465C195.785 108.1 195.889 107.654 195.825 107.216C195.198 103.103 195.764 96.8561 196.537 91.7524C197.31 86.6487 198.251 82.6623 198.251 82.6623C198.304 82.4386 198.312 82.2066 198.276 81.9796C198.239 81.7527 198.158 81.5351 198.037 81.3396C197.916 81.144 197.757 80.9742 197.571 80.8398C197.384 80.7054 197.173 80.609 196.949 80.5564H196.948Z" fill="black"/>
<path d="M174.355 69.8519C173.891 69.8257 173.437 69.9846 173.09 70.2936C172.744 70.6026 172.535 71.0364 172.508 71.4996C172.508 71.4996 172.191 77.0426 172.661 83.9151C173.131 90.7877 174.3 99.0083 177.684 104.761C177.8 104.959 177.955 105.133 178.138 105.271C178.322 105.41 178.531 105.51 178.753 105.568C178.976 105.626 179.207 105.639 179.435 105.607C179.663 105.576 179.882 105.499 180.08 105.383C180.278 105.266 180.451 105.112 180.59 104.928C180.728 104.745 180.829 104.536 180.887 104.313C180.944 104.09 180.957 103.859 180.925 103.631C180.893 103.404 180.817 103.184 180.7 102.986C177.904 98.2325 176.607 90.3157 176.153 83.6773C175.699 77.0389 176.002 71.6994 176.002 71.6994C176.016 71.4699 175.983 71.2401 175.908 71.0231C175.832 70.806 175.714 70.6059 175.561 70.4343C175.408 70.2627 175.223 70.1229 175.016 70.023C174.809 69.9231 174.584 69.865 174.355 69.8519Z" fill="black"/>
<path d="M174.428 76.7201C174.2 76.6868 173.968 76.6987 173.746 76.755C173.523 76.8113 173.313 76.911 173.129 77.0484C172.756 77.3255 172.51 77.7393 172.442 78.1985C172.375 78.6577 172.493 79.1247 172.77 79.4969C172.77 79.4969 174.356 81.5591 177.895 83.6137C181.434 85.6684 187.04 87.8724 195.398 88.7027C195.86 88.7485 196.321 88.6091 196.68 88.315C197.039 88.0208 197.267 87.5961 197.312 87.1343C197.358 86.6725 197.219 86.2113 196.925 85.8524C196.63 85.4934 196.206 85.2661 195.744 85.2202C187.837 84.4347 182.745 82.3841 179.652 80.588C176.558 78.7919 175.577 77.4068 175.577 77.4068C175.3 77.0345 174.887 76.7875 174.428 76.7201Z" fill="black"/>
<path d="M175.127 86.8093C174.669 86.7354 174.201 86.846 173.825 87.1169C173.638 87.2513 173.48 87.4211 173.359 87.6167C173.238 87.8122 173.157 88.0298 173.12 88.2567C173.083 88.4837 173.092 88.7155 173.144 88.9393C173.197 89.163 173.294 89.3742 173.428 89.5607C173.428 89.5607 173.854 90.1201 174.581 90.7311C175.309 91.342 176.419 92.114 178.02 92.8719C181.221 94.3879 186.375 95.8483 194.4 95.9691C194.864 95.9761 195.312 95.7986 195.645 95.4757C195.978 95.1527 196.17 94.7107 196.177 94.2469C196.18 94.017 196.138 93.7887 196.054 93.5751C195.969 93.3614 195.843 93.1667 195.683 93.0018C195.523 92.8368 195.332 92.7049 195.121 92.6138C194.91 92.5227 194.683 92.4741 194.453 92.4707C186.83 92.356 182.194 90.9752 179.519 89.7082C178.181 89.0746 177.33 88.469 176.832 88.051C176.334 87.633 176.267 87.5118 176.267 87.5118C175.995 87.1357 175.585 86.883 175.127 86.8093Z" fill="black"/>
<path d="M193.847 102.125C193.383 102.113 192.933 102.286 192.596 102.605C192.26 102.924 192.064 103.365 192.052 103.829C192.045 104.058 192.085 104.287 192.167 104.502C192.25 104.716 192.374 104.913 192.532 105.079C192.69 105.246 192.88 105.38 193.09 105.473C193.3 105.567 193.527 105.618 193.756 105.624C193.756 105.624 204.439 105.923 212.535 107.85C212.759 107.903 212.991 107.912 213.217 107.876C213.444 107.839 213.662 107.759 213.858 107.638C214.053 107.518 214.223 107.36 214.358 107.174C214.493 106.988 214.59 106.777 214.643 106.553C214.75 106.102 214.674 105.626 214.431 105.231C214.188 104.836 213.798 104.553 213.347 104.445C204.666 102.378 193.847 102.125 193.847 102.125Z" fill="black"/>
<path d="M216.641 173.025C216.417 172.975 216.185 172.97 215.958 173.01C215.732 173.049 215.516 173.133 215.322 173.256C215.322 173.256 191.786 188.016 192.678 211.126C192.691 211.468 192.804 211.798 193.002 212.076C193.201 212.354 193.477 212.568 193.795 212.691C194.114 212.815 194.462 212.842 194.796 212.77C195.13 212.698 195.436 212.529 195.676 212.286C195.676 212.286 200.222 207.673 205.054 204.28C207.47 202.584 209.989 201.236 211.71 200.885C212.571 200.71 213.164 200.777 213.531 200.947C213.898 201.117 214.202 201.379 214.499 202.217C214.575 202.434 214.694 202.633 214.848 202.804C215.001 202.975 215.188 203.114 215.395 203.213C215.603 203.312 215.828 203.369 216.057 203.381C216.287 203.393 216.517 203.359 216.733 203.283C216.95 203.206 217.149 203.087 217.32 202.934C217.491 202.78 217.63 202.594 217.729 202.386C217.828 202.179 217.885 201.954 217.897 201.724C217.909 201.495 217.876 201.265 217.799 201.048C217.27 199.554 216.276 198.362 215.003 197.772C213.73 197.182 212.341 197.184 211.011 197.455C208.35 197.997 205.644 199.589 203.043 201.416C200.508 203.196 198.137 205.223 196.335 206.851C198.286 188.489 217.203 176.208 217.203 176.208C217.594 175.958 217.87 175.564 217.971 175.111C218.071 174.658 217.988 174.184 217.739 173.792C217.489 173.401 217.094 173.125 216.641 173.025Z" fill="black"/>
<path d="M227.804 177.83C227.589 177.749 227.36 177.711 227.13 177.718C226.9 177.725 226.674 177.777 226.464 177.872C226.255 177.966 226.066 178.101 225.909 178.269C225.751 178.436 225.628 178.633 225.547 178.848C225.547 178.848 213.335 211.027 215.89 245.211C215.907 245.44 215.969 245.664 216.072 245.869C216.176 246.074 216.319 246.257 216.493 246.407C216.667 246.557 216.87 246.671 217.088 246.743C217.306 246.815 217.537 246.843 217.766 246.825C217.995 246.808 218.219 246.746 218.424 246.643C218.629 246.539 218.812 246.396 218.962 246.222C219.112 246.048 219.226 245.846 219.298 245.627C219.369 245.409 219.398 245.178 219.38 244.949C216.9 211.758 228.822 180.085 228.822 180.085C228.986 179.651 228.971 179.17 228.78 178.747C228.589 178.324 228.238 177.994 227.804 177.83Z" fill="black"/>
<path d="M258.928 186.194C258.479 186.312 258.096 186.604 257.862 187.004C257.862 187.004 242.226 213.69 239.023 241.364C238.97 241.825 239.102 242.288 239.39 242.652C239.678 243.015 240.099 243.25 240.56 243.303C240.789 243.33 241.02 243.311 241.241 243.248C241.462 243.185 241.669 243.079 241.849 242.936C242.029 242.793 242.179 242.616 242.291 242.415C242.403 242.214 242.474 241.993 242.5 241.765C245.582 215.135 260.885 188.768 260.885 188.768C261.119 188.367 261.184 187.89 261.066 187.441C260.948 186.992 260.656 186.609 260.256 186.375C260.057 186.259 259.838 186.183 259.61 186.152C259.382 186.121 259.15 186.135 258.928 186.194Z" fill="black"/>
<path d="M223.742 188.405C223.279 188.426 222.843 188.631 222.53 188.974C222.217 189.317 222.054 189.77 222.075 190.233C222.333 195.831 223.566 200.139 225.715 203.215C227.864 206.291 231.008 208.031 234.479 208.302C241.423 208.844 249.454 204.19 257.06 195.888C257.215 195.719 257.335 195.52 257.414 195.304C257.492 195.088 257.527 194.859 257.517 194.63C257.507 194.4 257.452 194.174 257.354 193.966C257.257 193.758 257.12 193.571 256.95 193.416C256.781 193.261 256.582 193.141 256.366 193.062C256.15 192.984 255.921 192.948 255.691 192.959C255.462 192.969 255.236 193.024 255.028 193.121C254.82 193.219 254.633 193.356 254.478 193.525C247.28 201.381 239.833 205.21 234.752 204.813C232.212 204.615 230.206 203.532 228.586 201.212C226.965 198.892 225.808 195.232 225.571 190.071C225.549 189.608 225.344 189.172 225.002 188.859C224.659 188.547 224.206 188.383 223.742 188.405Z" fill="black"/>
<path d="M279.589 175.548C279.362 175.517 279.13 175.531 278.908 175.589C278.685 175.647 278.477 175.749 278.294 175.888C278.11 176.026 277.956 176.2 277.84 176.398C277.724 176.597 277.648 176.816 277.617 177.044C277.585 177.271 277.599 177.503 277.657 177.725C277.715 177.948 277.817 178.156 277.956 178.339C277.956 178.339 280.55 181.747 281.307 187.426C282.015 192.741 281.06 199.945 274.424 208.201C273.125 206.428 271.048 203.761 268.078 201.204C265.93 199.355 263.563 197.754 260.866 197.618C259.518 197.55 258.085 197.946 256.914 198.871C255.743 199.796 254.839 201.165 254.138 202.963C254.055 203.177 254.014 203.405 254.019 203.635C254.024 203.865 254.074 204.091 254.166 204.302C254.258 204.512 254.391 204.702 254.557 204.862C254.723 205.021 254.919 205.145 255.133 205.229C255.347 205.312 255.576 205.353 255.805 205.348C256.035 205.343 256.262 205.293 256.472 205.2C256.683 205.108 256.873 204.975 257.032 204.809C257.191 204.643 257.316 204.447 257.399 204.233C257.945 202.832 258.556 202.035 259.084 201.618C259.611 201.201 260.061 201.082 260.69 201.114C261.948 201.177 263.916 202.241 265.794 203.857C269.55 207.09 272.912 212.035 272.912 212.035C273.061 212.257 273.259 212.442 273.49 212.575C273.722 212.708 273.981 212.787 274.247 212.805C274.514 212.823 274.781 212.78 275.028 212.678C275.275 212.577 275.496 212.421 275.673 212.221C284.21 202.592 285.651 193.524 284.777 186.965C283.903 180.405 280.746 176.225 280.746 176.225C280.607 176.042 280.433 175.888 280.235 175.772C280.036 175.656 279.817 175.58 279.589 175.548Z" fill="black"/>
<path d="M105.827 233.131C77.3014 233.503 55.5784 237.142 55.5784 237.142C55.1225 237.218 54.7152 237.471 54.4454 237.847C54.1755 238.222 54.0652 238.689 54.1383 239.145C55.9093 250.19 57.1624 260.828 57.9463 271.098C57.9818 271.561 58.1995 271.99 58.5517 272.292C58.9038 272.595 59.3615 272.745 59.8242 272.709C60.0534 272.692 60.277 272.63 60.4821 272.526C60.6872 272.422 60.87 272.279 61.0198 272.105C61.1695 271.93 61.2835 271.728 61.3551 271.51C61.4267 271.291 61.4546 271.061 61.4372 270.832C60.6881 261.017 59.4776 250.848 57.8401 240.347C62.0878 239.68 87.1556 235.965 118.344 236.692C152.452 237.486 192.442 243.896 216.107 265.454C216.28 265.612 216.483 265.734 216.705 265.811C216.926 265.889 217.16 265.922 217.394 265.908C217.628 265.893 217.857 265.832 218.067 265.727C218.277 265.622 218.463 265.477 218.616 265.299C218.616 265.299 220.272 263.306 225.541 260.203C230.809 257.101 239.561 253.042 253.35 249.393C280.693 242.156 327.936 236.571 406.855 243.17C406.238 245.832 402.822 260.898 400.932 283.658C400.913 283.887 400.939 284.118 401.009 284.336C401.079 284.555 401.192 284.758 401.34 284.934C401.489 285.109 401.671 285.254 401.875 285.359C402.08 285.464 402.303 285.528 402.532 285.547C402.761 285.566 402.992 285.539 403.211 285.469C403.43 285.399 403.633 285.287 403.808 285.138C403.983 284.989 404.128 284.808 404.233 284.603C404.338 284.399 404.402 284.176 404.421 283.947C406.465 259.344 410.662 241.976 410.662 241.976C410.721 241.731 410.727 241.476 410.678 241.228C410.63 240.981 410.529 240.747 410.381 240.542C410.234 240.337 410.044 240.167 409.825 240.042C409.606 239.918 409.362 239.842 409.111 239.821C328.675 232.927 280.565 238.57 252.454 246.01C238.398 249.73 229.343 253.902 223.764 257.187C220.151 259.315 218.339 260.817 217.231 261.835C192.288 240.07 152.35 233.982 118.425 233.192C114.116 233.091 109.902 233.078 105.827 233.131ZM60.0938 318.294C59.6309 318.263 59.1746 318.417 58.8252 318.722C58.4757 319.027 58.2617 319.459 58.2302 319.921C55.6376 358.224 46.5233 391.501 34.8268 422.871C34.719 423.16 34.6898 423.473 34.7421 423.778C34.7944 424.082 34.9263 424.367 35.1244 424.604C35.3226 424.841 35.5798 425.021 35.8702 425.127C36.1605 425.232 36.4736 425.258 36.7776 425.204C101.214 413.572 150.279 413.618 183.206 416.558C216.133 419.498 232.8 425.289 232.8 425.289C233.238 425.441 233.719 425.413 234.137 425.21C234.554 425.008 234.874 424.648 235.027 424.209C235.102 423.992 235.134 423.762 235.12 423.533C235.106 423.303 235.048 423.079 234.947 422.872C234.847 422.665 234.706 422.48 234.535 422.328C234.363 422.175 234.162 422.058 233.945 421.983C233.945 421.983 216.749 416.039 183.519 413.072C150.802 410.151 102.346 410.131 39.0726 421.282C50.3535 390.51 59.1783 357.748 61.7227 320.158C61.7381 319.928 61.7082 319.698 61.6346 319.48C61.5611 319.263 61.4455 319.062 61.2942 318.889C61.143 318.716 60.9591 318.574 60.7531 318.472C60.5471 318.37 60.3231 318.31 60.0938 318.294ZM402.237 328.29C402.008 328.308 401.784 328.371 401.579 328.476C401.375 328.58 401.192 328.724 401.043 328.899C400.894 329.074 400.781 329.276 400.71 329.495C400.639 329.714 400.612 329.945 400.63 330.174C402.967 359.448 411.018 390.246 430.831 412.913C420.715 410.692 396.899 406.011 367.514 403.945C328.277 401.187 279.064 403.035 239.052 421.808C238.844 421.906 238.657 422.044 238.502 422.214C238.347 422.383 238.227 422.582 238.149 422.798C238.071 423.015 238.037 423.244 238.047 423.473C238.058 423.703 238.114 423.928 238.211 424.136C238.309 424.344 238.447 424.531 238.617 424.686C238.786 424.841 238.985 424.961 239.201 425.039C239.418 425.117 239.647 425.152 239.877 425.141C240.106 425.13 240.332 425.075 240.54 424.977C279.629 406.636 328.348 404.7 367.268 407.436C406.189 410.172 435.233 417.522 435.233 417.522C435.603 417.615 435.994 417.585 436.345 417.436C436.697 417.287 436.99 417.027 437.18 416.695C437.37 416.364 437.447 415.98 437.398 415.601C437.349 415.222 437.177 414.87 436.909 414.598C415.194 392.527 406.562 360.488 404.12 329.895C404.083 329.432 403.864 329.004 403.511 328.703C403.158 328.402 402.699 328.253 402.237 328.29Z" fill="black"/>
<path d="M216.637 262.536C216.206 262.709 215.861 263.045 215.678 263.471C215.495 263.898 215.489 264.38 215.661 264.81C215.661 264.81 218.699 272.366 222.592 294.64C226.485 316.915 231.173 353.758 234.313 411.892C234.338 412.356 234.546 412.79 234.891 413.1C235.237 413.41 235.691 413.57 236.154 413.545C236.384 413.533 236.609 413.475 236.816 413.376C237.023 413.277 237.209 413.138 237.363 412.967C237.516 412.796 237.635 412.596 237.711 412.38C237.788 412.163 237.821 411.933 237.809 411.704C234.663 353.461 229.963 316.487 226.04 294.037C222.117 271.588 218.911 263.512 218.911 263.512C218.739 263.081 218.402 262.736 217.976 262.553C217.549 262.37 217.068 262.364 216.637 262.536Z" fill="black"/>
<path d="M289.086 178.515C287.406 178.486 286.469 178.539 286.469 178.539C286.24 178.552 286.015 178.61 285.808 178.71C285.601 178.81 285.416 178.95 285.263 179.121C285.11 179.293 284.992 179.493 284.916 179.71C284.841 179.927 284.808 180.157 284.822 180.387C284.835 180.616 284.893 180.841 284.993 181.048C285.093 181.255 285.232 181.44 285.404 181.593C285.576 181.746 285.776 181.864 285.993 181.939C286.21 182.015 286.44 182.047 286.669 182.034C286.669 182.034 300.889 181.219 317.698 187.978C334.508 194.737 353.762 208.939 363.863 239.435C363.935 239.654 364.05 239.855 364.2 240.03C364.35 240.204 364.533 240.346 364.739 240.45C364.944 240.553 365.168 240.614 365.397 240.631C365.627 240.648 365.857 240.619 366.076 240.547C366.294 240.475 366.495 240.36 366.669 240.21C366.843 240.059 366.986 239.876 367.089 239.671C367.192 239.465 367.254 239.241 367.27 239.012C367.287 238.783 367.258 238.553 367.186 238.335C356.767 206.879 336.543 191.782 319.005 184.73C305.852 179.441 294.127 178.604 289.086 178.515Z" fill="black"/>
<path d="M199.653 180.269C199.653 180.269 151.456 182.943 124.959 234.438C124.747 234.851 124.707 235.331 124.849 235.773C124.99 236.215 125.302 236.583 125.714 236.795C126.127 237.007 126.607 237.047 127.049 236.906C127.491 236.764 127.859 236.453 128.071 236.04C153.805 186.026 199.837 183.763 199.837 183.763C200.301 183.739 200.735 183.531 201.046 183.187C201.356 182.842 201.517 182.388 201.493 181.925C201.481 181.695 201.424 181.47 201.325 181.263C201.226 181.056 201.087 180.87 200.916 180.716C200.745 180.562 200.546 180.444 200.329 180.367C200.113 180.29 199.883 180.257 199.653 180.269Z" fill="black"/>
<path d="M54.7061 282.245C54.4931 282.159 54.265 282.115 54.035 282.116C53.8051 282.118 53.5777 282.165 53.3659 282.255C53.1541 282.344 52.9621 282.475 52.8007 282.638C52.6393 282.802 52.5118 282.996 52.4254 283.209C52.2511 283.639 52.2549 284.121 52.4357 284.548C52.6166 284.976 52.9597 285.314 53.3897 285.488C53.3897 285.488 63.7149 289.705 71.1755 291.248C74.4906 291.937 78.3675 293.551 81.3371 295.433C84.3067 297.315 86.118 299.628 86.1999 300.511C86.351 302.11 85.8769 303.247 84.9898 303.951C84.1029 304.654 82.6015 305.06 80.2079 304.448C77.447 303.74 70.4414 301.921 63.7226 300.229C60.3629 299.383 57.0745 298.568 54.4142 297.939C51.7539 297.309 49.8455 296.872 48.7617 296.741C48.5335 296.714 48.3021 296.731 48.0808 296.793C47.8594 296.855 47.6523 296.96 47.4714 297.101C47.2906 297.243 47.1395 297.419 47.0267 297.62C46.9138 297.82 46.8415 298.04 46.8139 298.268C46.7863 298.497 46.804 298.728 46.8658 298.949C46.9276 299.171 47.0324 299.378 47.1743 299.559C47.3161 299.739 47.4921 299.89 47.6924 300.003C47.8927 300.116 48.1132 300.188 48.3414 300.216C48.8695 300.28 50.9775 300.723 53.6085 301.345C56.2394 301.967 59.517 302.778 62.8678 303.622C69.5695 305.31 76.5625 307.126 79.3402 307.839C82.4756 308.64 85.2533 308.21 87.1657 306.692C89.0782 305.175 89.923 302.708 89.6843 300.183C89.3828 296.951 86.5631 294.598 83.2102 292.474C79.856 290.349 75.7184 288.614 71.8876 287.818C65.0562 286.405 54.7076 282.242 54.7076 282.242L54.7061 282.245Z" fill="black"/>
<path d="M76.9073 303.905C76.6906 303.981 76.491 304.1 76.3201 304.254C76.1492 304.407 76.0104 304.593 75.9114 304.801C75.8124 305.008 75.7553 305.233 75.7433 305.463C75.7313 305.693 75.7647 305.922 75.8415 306.139C75.8415 306.139 76.2 307.262 76.081 308.324C76.0217 308.855 75.8634 309.304 75.564 309.661C75.2646 310.019 74.7956 310.369 73.7543 310.578C71.5319 311.021 66.0358 310.982 60.8757 310.595C55.7157 310.208 50.5302 309.443 49.0852 308.979C48.6433 308.837 48.1631 308.876 47.7503 309.088C47.3374 309.3 47.0258 309.668 46.8838 310.11C46.7418 310.551 46.7812 311.031 46.9933 311.444C47.2054 311.857 47.5727 312.169 48.0146 312.311C50.4349 313.089 55.3191 313.688 60.614 314.085C65.9091 314.482 71.2536 314.645 74.4395 314.009C76.0982 313.677 77.4026 312.915 78.2459 311.908C79.0893 310.9 79.4434 309.732 79.5575 308.714C79.7857 306.677 79.1404 304.97 79.1404 304.97C79.0637 304.753 78.9451 304.553 78.7912 304.382C78.6374 304.212 78.4514 304.073 78.2439 303.974C78.0363 303.875 77.8114 303.818 77.5818 303.806C77.3522 303.794 77.1225 303.827 76.9057 303.904L76.9073 303.905Z" fill="black"/>
<path d="M44.5507 266.271C43.2874 266.302 42.0218 266.416 40.7617 266.624C38.1023 267.063 36.1057 268.189 34.7903 269.691C33.4746 271.194 32.8584 272.976 32.5493 274.623C32.2401 276.271 32.2213 277.827 32.1797 278.994C32.1586 279.577 32.131 280.066 32.0877 280.359C32.0747 280.448 32.0601 280.467 32.0447 280.508C31.9692 280.559 31.4048 280.989 30.6156 281.503C29.7644 282.057 28.7303 282.742 27.8115 283.672C26.8927 284.603 26.0484 285.853 25.8924 287.432C25.7364 289.011 26.3218 290.717 27.6117 292.383C29.5991 294.946 30.1372 297.271 30.687 299.684C31.2366 302.098 31.8132 304.76 34.1413 306.854C35.486 308.067 35.966 310.206 36.5077 312.725C37.0497 315.245 37.7512 318.306 40.6123 319.909C44.8583 322.294 50.5347 322.522 55.7383 322.2C60.9426 321.878 65.6819 320.912 67.8619 320.421C69.2687 320.105 70.4007 319.355 71.1085 318.426C71.817 317.496 72.1172 316.461 72.2378 315.552C72.479 313.735 72.0332 312.186 72.0332 312.186C71.9123 311.738 71.6186 311.356 71.2165 311.125C70.8144 310.894 70.3368 310.831 69.8889 310.952C69.4407 311.072 69.0588 311.366 68.8271 311.768C68.5954 312.17 68.5329 312.648 68.6534 313.096C68.6534 313.096 68.8978 314.11 68.7675 315.091C68.7026 315.582 68.5522 316.006 68.325 316.304C68.0979 316.602 67.8109 316.847 67.0959 317.007C65.0208 317.474 60.4258 318.403 55.5242 318.707C50.6226 319.01 45.4232 318.595 42.3284 316.856C40.9426 316.08 40.4626 314.436 39.9367 311.991C39.4107 309.545 38.9367 306.46 36.4902 304.255C35.0261 302.938 34.6607 301.337 34.108 298.911C33.5554 296.485 32.8319 293.396 30.3855 290.243C29.4625 289.05 29.329 288.31 29.3817 287.778C29.4344 287.246 29.7265 286.721 30.3079 286.132C30.8894 285.543 31.7205 284.966 32.5315 284.438C33.3424 283.91 34.0893 283.551 34.8059 282.726C35.3873 282.058 35.4718 281.442 35.5561 280.873C35.6405 280.304 35.6628 279.73 35.6845 279.119C35.7276 277.898 35.7575 276.538 35.9953 275.271C36.2332 274.003 36.6641 272.873 37.4291 271.999C38.1941 271.125 39.3119 270.412 41.3371 270.078C49.9984 268.645 60.0207 272.667 65.8048 275.531C72.0596 278.627 79.3573 284.983 81.4542 286.898C81.4569 286.898 81.4596 286.898 81.4623 286.898C81.5754 287.001 81.9776 287.522 82.2172 288.073C82.4568 288.624 82.5488 289.214 82.5058 289.504C82.4628 289.793 82.5172 289.814 82.0665 290.009C81.6161 290.205 80.4906 290.386 78.5582 290.071C78.1001 289.997 77.6313 290.107 77.2548 290.379C76.8782 290.65 76.6248 291.059 76.5503 291.517C76.4759 291.975 76.5865 292.444 76.8578 292.821C77.129 293.197 77.5387 293.451 77.9967 293.525C80.3072 293.901 82.0459 293.833 83.4574 293.222C84.8689 292.611 85.7827 291.268 85.9681 290.017C86.1536 288.766 85.8453 287.639 85.4274 286.677C85.0101 285.717 84.4986 284.931 83.8175 284.311C81.6094 282.295 74.3269 275.841 67.3624 272.394C62.0923 269.784 53.4018 266.047 44.5585 266.271L44.5507 266.271Z" fill="black"/>
<path d="M30.9284 307.722C30.9284 307.722 9.83543 323.885 1.26484 355.485C-0.217386 360.943 -0.649487 368.698 1.36001 376.555C3.36934 384.411 7.89997 392.378 16.3432 397.772C19.1737 399.582 23.828 400.469 29.3867 400.331C34.9454 400.194 41.343 398.903 47.1741 395.713C47.5808 395.491 47.8825 395.115 48.0128 394.67C48.143 394.225 48.0912 393.746 47.8687 393.339C47.7585 393.138 47.6096 392.96 47.4305 392.816C47.2514 392.671 47.0457 392.564 46.825 392.499C46.6044 392.434 46.3732 392.414 46.1446 392.439C45.916 392.463 45.6946 392.533 45.4929 392.643C40.2639 395.503 34.3786 396.705 29.2995 396.831C24.2204 396.957 19.881 395.88 18.229 394.824C10.6188 389.963 6.59055 382.88 4.75094 375.687C2.91124 368.495 3.33999 361.2 4.64309 356.402C12.9144 325.905 33.0568 310.5 33.0568 310.5C33.2393 310.36 33.3925 310.186 33.5075 309.987C33.6226 309.788 33.6974 309.568 33.7276 309.341C33.7578 309.113 33.7428 308.881 33.6835 308.659C33.6242 308.437 33.5217 308.229 33.3819 308.047C33.2422 307.864 33.0679 307.711 32.869 307.596C32.67 307.481 32.4503 307.406 32.2225 307.376C31.9946 307.346 31.7631 307.361 31.5411 307.42C31.319 307.479 31.1108 307.582 30.9284 307.722Z" fill="black"/>
<path fill-rule="evenodd" clip-rule="evenodd" d="M58.5548 335.515C57.7671 342.254 56.7926 348.839 55.6395 355.286C18.2204 352.339 29.0368 322.11 31.0913 317.068C32.7641 312.976 33.763 314.047 34.575 318.911C38.1805 340.533 58.5548 335.515 58.5548 335.515Z" fill="black"/>
<path d="M412.919 292.662C412.487 292.494 412.005 292.503 411.58 292.689C411.58 292.689 394.262 300.251 388.415 303.56C386.578 304.604 385.287 305.73 384.502 307.019C383.717 308.308 383.522 309.831 383.968 311.106C384.859 313.654 387.527 314.925 390.372 315.102C396.37 315.474 409.232 314.531 415.686 312.796C416.135 312.676 416.517 312.382 416.748 311.98C416.98 311.578 417.042 311.1 416.922 310.652C416.801 310.204 416.508 309.822 416.106 309.59C415.704 309.359 415.226 309.296 414.778 309.417C409.213 310.913 395.846 311.934 390.589 311.608C388.732 311.493 387.47 310.519 387.271 309.95C387.172 309.665 387.142 309.411 387.49 308.839C387.838 308.268 388.651 307.452 390.14 306.605C395.371 303.645 412.984 295.896 412.984 295.896C413.194 295.803 413.385 295.671 413.544 295.505C413.703 295.339 413.828 295.143 413.911 294.929C413.995 294.715 414.035 294.487 414.03 294.257C414.026 294.027 413.976 293.8 413.883 293.59C413.697 293.165 413.35 292.831 412.917 292.662L412.919 292.662Z" fill="black"/>
<path d="M393.768 311.786C393.552 311.707 393.322 311.672 393.093 311.682C392.863 311.691 392.637 311.746 392.429 311.843C392.429 311.843 391.341 312.342 390.235 313.207C389.131 314.071 387.705 315.413 387.747 317.514C387.777 319.218 388.665 321.007 390.362 322.227C392.06 323.448 394.477 324.152 397.729 324.2C403.952 324.292 415.981 323.409 415.981 323.409C416.444 323.375 416.875 323.159 417.179 322.808C417.482 322.457 417.634 322 417.601 321.537C417.567 321.074 417.351 320.644 417 320.34C416.649 320.037 416.192 319.885 415.729 319.918C415.729 319.918 403.593 320.788 397.78 320.702C395.016 320.661 393.324 320.044 392.407 319.385C391.49 318.726 391.257 318.076 391.246 317.451C391.246 317.448 391.246 317.445 391.246 317.442C391.238 317.224 391.651 316.542 392.392 315.961C393.134 315.381 393.906 315.015 393.906 315.015C394.114 314.918 394.301 314.781 394.457 314.611C394.612 314.442 394.733 314.244 394.811 314.028C394.89 313.812 394.926 313.583 394.916 313.353C394.906 313.123 394.851 312.898 394.754 312.69C394.558 312.269 394.203 311.943 393.768 311.784V311.786Z" fill="black"/>
<path d="M417.261 275.488C412.844 275.618 407.392 277.562 401.552 282.462C399.335 284.318 395.9 287.577 392.748 290.734C389.596 293.891 386.864 296.735 385.722 298.406C385.152 299.238 384.749 300.123 384.65 301.099C384.55 302.075 384.839 303.177 385.544 303.966C386.955 305.546 389.221 305.816 392.209 305.397C392.668 305.332 393.083 305.088 393.362 304.717C393.642 304.346 393.762 303.88 393.698 303.421C393.633 302.961 393.389 302.546 393.018 302.267C392.648 301.988 392.181 301.867 391.722 301.932C389.269 302.276 388.234 301.724 388.155 301.635C388.115 301.59 388.112 301.646 388.131 301.456C388.151 301.266 388.279 300.865 388.61 300.382C389.222 299.488 392.121 296.315 395.224 293.208C398.326 290.101 401.768 286.847 403.798 285.147C414.529 276.143 422.383 279.316 423.928 281.454C426.565 285.121 430.065 288.12 434.495 292.065C436.586 293.926 438.598 296.3 439.794 298.319C440.393 299.328 440.779 300.255 440.909 300.872C441.04 301.49 440.923 301.62 440.949 301.589C440.281 302.389 438.621 303.754 437.26 305.482C435.899 307.211 434.746 309.696 435.669 312.373C436.178 313.846 436.028 315.518 435.109 317.836C434.19 320.154 432.498 323 430.234 326.438C428.101 329.683 426.131 331.105 424.288 331.782C422.446 332.458 420.604 332.399 418.646 332.21C416.958 332.044 412.693 331.053 408.401 329.903C404.107 328.752 399.654 327.435 397.133 326.618C396.119 326.288 395.722 325.91 395.532 325.629C395.341 325.347 395.289 325.068 395.316 324.682C395.37 323.91 395.868 323.044 395.868 323.044C395.993 322.851 396.08 322.636 396.122 322.41C396.164 322.184 396.161 321.952 396.114 321.727C396.067 321.502 395.975 321.289 395.846 321.1C395.716 320.91 395.55 320.748 395.357 320.622C395.165 320.497 394.949 320.41 394.723 320.368C394.497 320.326 394.265 320.329 394.04 320.376C393.816 320.423 393.602 320.515 393.413 320.645C393.223 320.774 393.061 320.94 392.935 321.133C392.935 321.133 391.959 322.529 391.825 324.436C391.758 325.39 391.932 326.556 392.634 327.592C393.336 328.629 394.499 329.444 396.052 329.949C398.672 330.797 403.139 332.115 407.492 333.282C411.845 334.449 415.947 335.461 418.304 335.692C420.389 335.893 422.876 336.029 425.492 335.068C428.107 334.107 430.724 332.057 433.154 328.361C435.461 324.858 437.265 321.881 438.358 319.125C439.451 316.368 439.829 313.713 438.973 311.232C438.532 309.955 438.983 308.949 440.007 307.647C441.032 306.345 442.537 305.141 443.631 303.83C444.534 302.747 444.582 301.35 444.327 300.147C444.073 298.945 443.523 297.756 442.799 296.535C441.35 294.092 439.167 291.543 436.816 289.45C432.364 285.487 429.061 282.608 426.761 279.408C425.056 277.05 421.673 275.366 417.256 275.496L417.261 275.488Z" fill="black"/>
<path d="M441.49 312.183C441.326 312.344 441.195 312.536 441.106 312.748C441.016 312.959 440.969 313.187 440.967 313.417C440.966 313.646 441.009 313.874 441.096 314.087C441.182 314.3 441.31 314.494 441.471 314.658C441.471 314.658 458.189 331.915 456.372 351.429C455.302 362.837 453.485 374.114 448.286 381.569C443.087 389.025 434.712 393.125 418.892 390.376C418.435 390.296 417.965 390.402 417.585 390.669C417.206 390.936 416.948 391.343 416.868 391.8C416.829 392.026 416.834 392.258 416.885 392.483C416.935 392.707 417.029 392.919 417.161 393.107C417.293 393.296 417.461 393.456 417.655 393.579C417.85 393.702 418.066 393.785 418.293 393.825C434.939 396.718 445.249 392.042 451.157 383.571C457.064 375.1 458.775 363.301 459.858 351.756C461.873 330.12 443.966 312.205 443.966 312.205C443.804 312.041 443.613 311.91 443.401 311.82C443.189 311.731 442.962 311.684 442.732 311.682C442.502 311.68 442.274 311.723 442.061 311.81C441.848 311.896 441.654 312.023 441.49 312.185L441.49 312.183Z" fill="black"/>
<path fill-rule="evenodd" clip-rule="evenodd" d="M403.188 338.292C403.188 338.292 412.859 345.072 423.505 342.068C427.817 340.85 436.806 337.277 439.21 326.024C439.681 323.791 442.101 320.9 442.718 325.406C443.441 330.627 442.604 343.253 435.661 352.266C434.2 354.158 425.332 365.842 405.648 354.036C404.609 348.807 403.797 343.537 403.188 338.292Z" fill="black"/>
</g>
<defs>
<clipPath id="clip0_1_349">
<rect width="460.016" height="424.727" fill="white" transform="translate(0 0.659302)"/>
</clipPath>
</defs>
</svg>
