<svg width="1204" height="770" viewBox="0 0 1204 770" fill="none" xmlns="http://www.w3.org/2000/svg">
<path d="M1103.56 454.974C1111.19 453.957 1127.58 448.155 1132.06 433.091" stroke="#A0A0A0" stroke-width="5" stroke-linecap="round"/>
<path d="M1078.62 442.76C1083.71 442.93 1095.42 440.419 1101.52 429.02" stroke="#A0A0A0" stroke-width="5" stroke-linecap="round"/>
<path d="M1055.72 424.44C1063.86 422.749 1081.57 417.482 1087.27 409.943" stroke="#A0A0A0" stroke-width="5" stroke-linecap="round"/>
<path d="M1129.37 480.567C1078.17 492 1030.43 441.002 1011.52 412.067C1010.81 410.983 1011.34 409.546 1012.56 409.134L1093.19 382.096C1093.93 381.848 1094.74 382.05 1095.28 382.608C1122.13 410.107 1172.07 422.206 1198.32 425.494C1200.15 425.723 1200.79 428.095 1199.31 429.187L1130.11 480.228C1129.89 480.39 1129.63 480.507 1129.37 480.567Z" stroke="#A0A0A0" stroke-width="5" stroke-linecap="round"/>
<path d="M747.551 309.45C705.965 307.729 660.622 329.581 652.892 335.378C646.529 340.15 647.417 347.253 648.726 350.426C648.787 350.574 648.87 350.71 648.968 350.837L725.069 449.261C725.129 449.338 725.181 449.418 725.231 449.501C726.835 452.195 731.683 455.467 738.899 447.85C750.254 435.864 798.484 405.468 859.897 405.981C861.79 405.997 862.72 403.616 861.287 402.379L802.514 351.657" stroke="black" stroke-width="5" stroke-linecap="round"/>
<path d="M568.92 394.494C588.768 383.726 592.839 407.726 603.526 405.69C617.281 403.07 594.366 374.137 572.482 372.611C554.975 371.389 520.403 398.905 505.305 412.815C477.823 439.476 390.696 468.76 262.041 372.611" stroke="black" stroke-width="5" stroke-linecap="round"/>
<path d="M247.687 195.579C262.287 151.824 248.621 123.721 239.963 115.139C268.308 141.486 303.468 137.134 317.504 131.665L316.463 152.407C338.369 160.03 350.997 130.757 354.573 115.167C360.09 91.1142 340.703 55.171 285.251 54.514C229.8 53.8581 190.506 90.6706 177.79 109.159C142.594 89.7812 95.3788 108.433 76.1704 120.182C56.2938 132.391 10.9387 172.815 21.7706 232.602C36.3847 313.264 125.884 315.431 141.499 311.562C195.452 298.192 229.436 250.274 247.687 195.579Z" fill="black"/>
<path d="M322.202 204.768C319.289 212.044 314.963 217.828 310.446 221.333C305.877 224.879 301.531 225.824 298.209 224.492C294.888 223.161 292.395 219.475 291.538 213.754C290.69 208.098 291.552 200.927 294.466 193.651C297.38 186.375 301.705 180.592 306.222 177.087C310.791 173.54 315.138 172.596 318.46 173.927C321.781 175.258 324.273 178.944 325.13 184.666C325.978 190.322 325.116 197.492 322.202 204.768Z" stroke="black" stroke-width="5"/>
<path d="M313.038 204.444C315.911 202.664 316.798 198.893 315.019 196.02C313.239 193.147 309.468 192.26 306.595 194.04C303.722 195.819 302.835 199.591 304.615 202.464C306.394 205.337 310.165 206.223 313.038 204.444Z" fill="black"/>
<path d="M249.258 191.945L292.106 196.916" stroke="black" stroke-width="5" stroke-linecap="round"/>
<path d="M321.193 154.573C323.043 162.598 329.808 180.783 338.683 192.174C347.76 203.824 345.98 215.493 336.853 222.03L322.599 232.34C317.517 280.976 300.115 313.739 238.504 316.236" stroke="black" stroke-width="5" stroke-linecap="round"/>
<path d="M155.838 359.872L197.616 379.51C198.972 380.148 200.496 379.085 200.386 377.579L197.227 334.99C197.11 333.411 198.778 332.35 200.142 333.135L229.488 350.039" stroke="black" stroke-width="5" stroke-linecap="round"/>
<path d="M219.514 316.166C222.364 319.051 226.641 323.843 231.018 329.588C237.026 337.472 243.223 347.151 246.174 356.156" stroke="black" stroke-width="5" stroke-linecap="round"/>
<path d="M233.924 383.153C236.625 382.357 238.041 379.084 237.087 375.842C236.132 372.601 233.168 370.618 230.467 371.413C227.765 372.209 226.349 375.481 227.304 378.723C228.258 381.965 231.222 383.948 233.924 383.153Z" fill="black"/>
<path d="M248.35 408.672C250.781 407.956 251.978 404.747 251.023 401.505C250.069 398.264 247.324 396.216 244.893 396.932C242.461 397.648 241.264 400.856 242.219 404.098C243.173 407.34 245.918 409.388 248.35 408.672Z" fill="black"/>
<path d="M285.782 263.553C284.221 267.27 283.977 275.662 295.488 279.496" stroke="black" stroke-width="5" stroke-linecap="round"/>
<path d="M502.913 605.118C501.027 593.084 500.532 585.39 500.883 579.667C500.957 578.453 497.896 577.28 497.202 578.279C484.745 596.214 469.648 604.765 461.876 609.481C461.655 609.615 461.504 609.816 461.439 610.068C457.812 624.203 452.612 656.317 470.709 664.613C493.535 675.076 506.999 631.188 502.913 605.118Z" fill="#A0A0A0"/>
<path d="M438.329 550.5C445.106 549.491 459.25 546.366 464.011 564.943C469.964 588.163 439.17 666.746 477.224 665.759C507.667 664.97 506.6 607.292 501.743 577.624" stroke="black" stroke-width="5" stroke-linecap="round"/>
<path d="M507.849 466.68L507.849 466.68C513.135 463.287 525.661 451.922 528.715 444.288C535.331 466.679 528.637 488.896 515.992 486.527C507.849 485.001 507.849 475.332 507.849 466.68Z" fill="#A0A0A0"/>
<path d="M528.322 444.796C534.742 466.884 527.27 489.604 515.992 486.528C509.235 484.684 507.199 474.233 506.587 465.152C505.481 449.376 504.796 416.093 510.903 409.171" stroke="black" stroke-width="5" stroke-linecap="round"/>
<path d="M442.938 665.782C327.529 609.268 124.005 798.854 173.551 422.169" stroke="black" stroke-width="5" stroke-linecap="round"/>
<path d="M139.926 373.936C45.8281 481 79.9129 595.216 13.8281 687" stroke="black" stroke-width="5" stroke-linecap="round"/>
<path d="M579.607 374.137C594.366 369.557 600.982 374.138 610.652 396.021" stroke="black" stroke-width="5" stroke-linecap="round"/>
<path d="M555.179 396.172C568.208 394.951 579.718 398.716 584.697 403.296C597.42 415.001 586.223 420.09 568.411 412.966C557.871 408.749 559.478 425.77 540.172 425.499C537.682 425.465 535.362 426.962 534.563 429.32C530.495 441.325 521.087 460.45 507.341 465.153" stroke="black" stroke-width="5" stroke-linecap="round"/>
<path d="M551.107 496.197C553.313 493.483 556.465 491.1 558.232 490.09C561.795 488.055 575.536 495.179 566.884 482.965C556.567 468.4 521.081 493.313 505.814 509.938C465.1 546.58 352.263 600.142 281.828 535" stroke="black" stroke-width="5" stroke-linecap="round"/>
<path d="M544.491 498.742C552.804 497.893 569.327 498.029 568.919 505.358" stroke="black" stroke-width="5" stroke-linecap="round"/>
<path d="M549.581 508.411C557.384 505.867 572.89 503.22 572.482 512.992" stroke="black" stroke-width="5" stroke-linecap="round"/>
<path d="M554.67 516.045C562.813 512.652 577.063 511.465 579.608 525.205C579.947 528.598 578.895 533.959 571.974 528.259C565.052 522.559 556.536 527.92 553.144 531.313C545.51 538.438 527.596 552.993 517.01 554.214C504.796 572.366 476.602 608.16 461.538 606.124" stroke="black" stroke-width="5" stroke-linecap="round"/>
<path d="M294.612 511.286C398.432 578.461 421.333 501.107 499.707 501.107" stroke="black" stroke-width="5" stroke-linecap="round"/>
<path d="M552.25 670.426L534.044 674.067C533.405 674.195 532.817 673.688 532.849 673.038L538.766 551.968C538.826 550.735 540.631 550.685 540.759 551.913L553.048 669.342C553.102 669.855 552.756 670.325 552.25 670.426Z" fill="#A0A0A0"/>
<path d="M561.794 652.435L911.557 579.146C912.799 578.886 913.967 579.834 913.967 581.104V588.732C913.967 589.674 913.309 590.488 912.388 590.687L552.51 668.199C551.265 668.467 550.089 667.518 550.089 666.244V655.997L540.929 545.053" stroke="black" stroke-width="5" stroke-linecap="round"/>
<path d="M566.884 623.427L900.88 555.213C902.119 554.96 903.28 555.907 903.28 557.172V578.642" stroke="black" stroke-width="5" stroke-linecap="round"/>
<path d="M539.911 481.438L534.822 432.073" stroke="black" stroke-width="5" stroke-linecap="round"/>
<path d="M742.971 464.135C747.551 457.859 763.226 443.27 789.282 435.127C821.853 424.948 899.209 387.288 904.807 464.135C905.147 484.153 904.807 500.777 898.191 553.705" stroke="black" stroke-width="5" stroke-linecap="round"/>
<path d="M705.355 468.206C705.355 468.764 704.868 469.89 702.679 471.025C700.616 472.095 697.591 472.831 694.114 472.831C690.636 472.831 687.612 472.095 685.548 471.025C683.36 469.89 682.873 468.764 682.873 468.206C682.873 467.648 683.36 466.522 685.548 465.387C687.612 464.317 690.636 463.581 694.114 463.581C697.591 463.581 700.616 464.317 702.679 465.387C704.868 466.522 705.355 467.648 705.355 468.206Z" stroke="black" stroke-width="5"/>
<path d="M695.176 452.938C695.176 453.496 694.689 454.622 692.501 455.757C690.437 456.827 687.413 457.563 683.935 457.563C680.458 457.563 677.433 456.827 675.37 455.757C673.181 454.622 672.694 453.496 672.694 452.938C672.694 452.38 673.181 451.254 675.37 450.12C677.433 449.05 680.458 448.313 683.935 448.313C687.413 448.313 690.437 449.05 692.501 450.12C694.689 451.254 695.176 452.38 695.176 452.938Z" stroke="black" stroke-width="5"/>
<path d="M684.998 437.671C684.998 438.229 684.511 439.355 682.323 440.489C680.259 441.559 677.235 442.296 673.757 442.296C670.28 442.296 667.255 441.559 665.192 440.489C663.004 439.355 662.517 438.229 662.517 437.671C662.517 437.113 663.004 435.987 665.192 434.852C667.255 433.782 670.28 433.046 673.757 433.046C677.235 433.046 680.259 433.782 682.323 434.852C684.511 435.987 684.998 437.113 684.998 437.671Z" stroke="black" stroke-width="5"/>
<path d="M674.82 422.913C674.82 423.334 674.442 424.332 672.44 425.373C670.561 426.35 667.792 427.029 664.597 427.029C661.402 427.029 658.633 426.35 656.754 425.373C654.752 424.332 654.374 423.334 654.374 422.913C654.374 422.492 654.752 421.494 656.754 420.453C658.633 419.476 661.402 418.797 664.597 418.797C667.792 418.797 670.561 419.476 672.44 420.453C674.442 421.494 674.82 422.492 674.82 422.913Z" stroke="black" stroke-width="5"/>
<path d="M664.642 408.154C664.642 408.439 664.372 409.309 662.557 410.256C660.863 411.14 658.35 411.761 655.437 411.761C652.523 411.761 650.01 411.14 648.316 410.256C646.501 409.309 646.231 408.439 646.231 408.154C646.231 407.869 646.501 406.999 648.316 406.052C650.01 405.168 652.523 404.547 655.437 404.547C658.35 404.547 660.863 405.168 662.557 406.052C664.372 406.999 664.642 407.869 664.642 408.154Z" stroke="black" stroke-width="5"/>
<path d="M654.463 393.395C654.463 393.545 654.299 394.287 652.672 395.139C651.163 395.929 648.906 396.493 646.275 396.493C643.645 396.493 641.387 395.929 639.878 395.139C638.251 394.287 638.088 393.545 638.088 393.395C638.088 393.245 638.251 392.503 639.878 391.651C641.387 390.861 643.645 390.297 646.275 390.297C648.906 390.297 651.163 390.861 652.672 391.651C654.299 392.503 654.463 393.245 654.463 393.395Z" stroke="black" stroke-width="5"/>
<path d="M679.908 494.67C679.908 495.228 679.421 496.354 677.233 497.488C675.17 498.558 672.145 499.295 668.668 499.295C665.19 499.295 662.166 498.558 660.102 497.488C657.914 496.354 657.427 495.228 657.427 494.67C657.427 494.112 657.914 492.986 660.102 491.851C662.166 490.781 665.19 490.045 668.668 490.045C672.145 490.045 675.17 490.781 677.233 491.851C679.421 492.986 679.908 494.112 679.908 494.67Z" stroke="black" stroke-width="5"/>
<path d="M670.748 479.402C670.748 479.96 670.261 481.086 668.073 482.221C666.009 483.291 662.985 484.027 659.507 484.027C656.03 484.027 653.005 483.291 650.942 482.221C648.754 481.086 648.267 479.96 648.267 479.402C648.267 478.844 648.754 477.718 650.942 476.584C653.005 475.514 656.03 474.777 659.507 474.777C662.985 474.777 666.009 475.514 668.073 476.584C670.261 477.718 670.748 478.844 670.748 479.402Z" stroke="black" stroke-width="5"/>
<path d="M663.623 464.135C663.623 464.693 663.136 465.819 660.948 466.953C658.884 468.023 655.86 468.76 652.382 468.76C648.905 468.76 645.88 468.023 643.817 466.953C641.629 465.819 641.142 464.693 641.142 464.135C641.142 463.577 641.629 462.451 643.817 461.316C645.88 460.246 648.905 459.51 652.382 459.51C655.86 459.51 658.884 460.246 660.948 461.316C663.136 462.451 663.623 463.577 663.623 464.135Z" stroke="black" stroke-width="5"/>
<path d="M655.481 448.358C655.481 448.779 655.103 449.777 653.101 450.818C651.223 451.795 648.454 452.474 645.258 452.474C642.063 452.474 639.294 451.795 637.415 450.818C635.413 449.777 635.035 448.779 635.035 448.358C635.035 447.937 635.413 446.939 637.415 445.898C639.294 444.921 642.063 444.242 645.258 444.242C648.454 444.242 651.223 444.921 653.101 445.898C655.103 446.939 655.481 447.937 655.481 448.358Z" stroke="black" stroke-width="5"/>
<path d="M647.338 433.6C647.338 433.885 647.068 434.755 645.253 435.702C643.559 436.586 641.046 437.207 638.133 437.207C635.22 437.207 632.706 436.586 631.013 435.702C629.198 434.755 628.928 433.885 628.928 433.6C628.928 433.315 629.198 432.445 631.013 431.498C632.706 430.615 635.22 429.993 638.133 429.993C641.046 429.993 643.559 430.615 645.253 431.498C647.068 432.445 647.338 433.315 647.338 433.6Z" stroke="black" stroke-width="5"/>
<path d="M640.214 419.859C640.214 420.009 640.05 420.75 638.423 421.603C636.914 422.393 634.657 422.957 632.026 422.957C629.396 422.957 627.138 422.393 625.629 421.603C624.002 420.75 623.839 420.009 623.839 419.859C623.839 419.709 624.002 418.967 625.629 418.115C627.138 417.325 629.396 416.761 632.026 416.761C634.657 416.761 636.914 417.325 638.423 418.115C640.05 418.967 640.214 419.709 640.214 419.859Z" stroke="black" stroke-width="5"/>
<path d="M635.124 407.645C635.124 407.795 634.961 408.537 633.333 409.389C631.825 410.179 629.567 410.743 626.936 410.743C624.306 410.743 622.048 410.179 620.539 409.389C618.912 408.537 618.749 407.795 618.749 407.645C618.749 407.495 618.912 406.753 620.539 405.901C622.048 405.111 624.306 404.547 626.936 404.547C629.567 404.547 631.825 405.111 633.333 405.901C634.961 406.753 635.124 407.495 635.124 407.645Z" stroke="black" stroke-width="5"/>
<path d="M630.035 395.431C630.035 395.581 629.872 396.323 628.245 397.175C626.736 397.965 624.478 398.529 621.847 398.529C619.217 398.529 616.959 397.965 615.45 397.175C613.823 396.323 613.66 395.581 613.66 395.431C613.66 395.281 613.823 394.54 615.45 393.687C616.959 392.897 619.217 392.333 621.847 392.333C624.478 392.333 626.736 392.897 628.245 393.687C629.872 394.54 630.035 395.281 630.035 395.431Z" stroke="black" stroke-width="5"/>
<path d="M650.392 518.08C650.392 518.638 649.905 519.764 647.716 520.899C645.653 521.969 642.629 522.705 639.151 522.705C635.673 522.705 632.649 521.969 630.586 520.899C628.397 519.764 627.91 518.638 627.91 518.08C627.91 517.522 628.397 516.396 630.586 515.261C632.649 514.191 635.673 513.455 639.151 513.455C642.629 513.455 645.653 514.191 647.716 515.261C649.905 516.396 650.392 517.522 650.392 518.08Z" stroke="black" stroke-width="5"/>
<path d="M645.302 499.76C645.302 500.318 644.815 501.444 642.627 502.578C640.563 503.648 637.539 504.385 634.061 504.385C630.584 504.385 627.559 503.648 625.496 502.578C623.307 501.444 622.82 500.318 622.82 499.76C622.82 499.202 623.307 498.076 625.496 496.941C627.559 495.871 630.584 495.135 634.061 495.135C637.539 495.135 640.563 495.871 642.627 496.941C644.815 498.076 645.302 499.202 645.302 499.76Z" stroke="black" stroke-width="5"/>
<path d="M639.196 482.456C639.196 483.014 638.709 484.14 636.52 485.275C634.457 486.345 631.432 487.081 627.955 487.081C624.477 487.081 621.453 486.345 619.389 485.275C617.201 484.14 616.714 483.014 616.714 482.456C616.714 481.898 617.201 480.772 619.389 479.637C621.453 478.567 624.477 477.831 627.955 477.831C631.432 477.831 634.457 478.567 636.52 479.637C638.709 480.772 639.196 481.898 639.196 482.456Z" stroke="black" stroke-width="5"/>
<path d="M633.089 466.679C633.089 467.101 632.71 468.099 630.709 469.14C628.83 470.117 626.061 470.795 622.866 470.795C619.67 470.795 616.901 470.117 615.022 469.14C613.021 468.099 612.643 467.101 612.643 466.679C612.643 466.258 613.021 465.26 615.022 464.219C616.901 463.242 619.67 462.563 622.866 462.563C626.061 462.563 628.83 463.242 630.709 464.219C632.71 465.26 633.089 466.258 633.089 466.679Z" stroke="black" stroke-width="5"/>
<path d="M625.963 451.921C625.963 452.206 625.693 453.076 623.878 454.022C622.184 454.906 619.671 455.528 616.758 455.528C613.845 455.528 611.331 454.906 609.638 454.022C607.823 453.076 607.553 452.206 607.553 451.921C607.553 451.635 607.823 450.765 609.638 449.819C611.331 448.935 613.845 448.313 616.758 448.313C619.671 448.313 622.184 448.935 623.878 449.819C625.693 450.765 625.963 451.635 625.963 451.921Z" stroke="black" stroke-width="5"/>
<path d="M618.839 438.18C618.839 438.33 618.675 439.072 617.048 439.924C615.539 440.714 613.282 441.278 610.651 441.278C608.021 441.278 605.763 440.714 604.254 439.924C602.627 439.072 602.464 438.33 602.464 438.18C602.464 438.03 602.627 437.289 604.254 436.436C605.763 435.646 608.021 435.082 610.651 435.082C613.282 435.082 615.539 435.646 617.048 436.436C618.675 437.289 618.839 438.03 618.839 438.18Z" stroke="black" stroke-width="5"/>
<path d="M613.75 425.966C613.75 426.116 613.587 426.858 611.959 427.71C610.451 428.501 608.193 429.064 605.562 429.064C602.932 429.064 600.674 428.501 599.165 427.71C597.538 426.858 597.375 426.116 597.375 425.966C597.375 425.817 597.538 425.075 599.165 424.222C600.674 423.432 602.932 422.868 605.562 422.868C608.193 422.868 610.451 423.432 611.959 424.222C613.587 425.075 613.75 425.817 613.75 425.966Z" stroke="black" stroke-width="5"/>
<path d="M608.66 413.752C608.66 413.902 608.497 414.644 606.87 415.496C605.361 416.287 603.103 416.851 600.472 416.851C597.842 416.851 595.584 416.287 594.075 415.496C592.448 414.644 592.285 413.902 592.285 413.752C592.285 413.603 592.448 412.861 594.075 412.009C595.584 411.218 597.842 410.654 600.472 410.654C603.103 410.654 605.361 411.218 606.87 412.009C608.497 412.861 608.66 413.603 608.66 413.752Z" stroke="black" stroke-width="5"/>
<path d="M617.821 527.241C617.821 527.799 617.334 528.925 615.145 530.06C613.082 531.13 610.057 531.866 606.58 531.866C603.102 531.866 600.078 531.13 598.014 530.06C595.826 528.925 595.339 527.799 595.339 527.241C595.339 526.683 595.826 525.557 598.014 524.422C600.078 523.352 603.102 522.616 606.58 522.616C610.057 522.616 613.082 523.352 615.145 524.422C617.334 525.557 617.821 526.683 617.821 527.241Z" stroke="black" stroke-width="5"/>
<path d="M612.732 508.92C612.732 509.478 612.245 510.604 610.056 511.738C607.993 512.808 604.968 513.545 601.491 513.545C598.013 513.545 594.989 512.808 592.925 511.738C590.737 510.604 590.25 509.478 590.25 508.92C590.25 508.362 590.737 507.236 592.925 506.101C594.989 505.031 598.013 504.295 601.491 504.295C604.968 504.295 607.993 505.031 610.056 506.101C612.245 507.236 612.732 508.362 612.732 508.92Z" stroke="black" stroke-width="5"/>
<path d="M606.624 491.617C606.624 492.175 606.137 493.301 603.949 494.436C601.885 495.506 598.861 496.242 595.383 496.242C591.906 496.242 588.881 495.506 586.818 494.436C584.63 493.301 584.143 492.175 584.143 491.617C584.143 491.059 584.63 489.933 586.818 488.798C588.881 487.728 591.906 486.992 595.383 486.992C598.861 486.992 601.885 487.728 603.949 488.798C606.137 489.933 606.624 491.059 606.624 491.617Z" stroke="black" stroke-width="5"/>
<path d="M600.517 475.841C600.517 476.262 600.139 477.26 598.137 478.301C596.259 479.278 593.49 479.957 590.294 479.957C587.099 479.957 584.33 479.278 582.451 478.301C580.449 477.26 580.071 476.262 580.071 475.841C580.071 475.419 580.449 474.421 582.451 473.38C584.33 472.403 587.099 471.725 590.294 471.725C593.49 471.725 596.259 472.403 598.137 473.38C600.139 474.421 600.517 475.419 600.517 475.841Z" stroke="black" stroke-width="5"/>
<path d="M596.446 461.082C596.446 461.367 596.176 462.237 594.362 463.184C592.668 464.067 590.154 464.689 587.241 464.689C584.328 464.689 581.815 464.067 580.121 463.184C578.306 462.237 578.036 461.367 578.036 461.082C578.036 460.797 578.306 459.927 580.121 458.98C581.815 458.096 584.328 457.475 587.241 457.475C590.154 457.475 592.668 458.096 594.362 458.98C596.176 459.927 596.446 460.797 596.446 461.082Z" stroke="black" stroke-width="5"/>
<path d="M591.357 447.34C591.357 447.49 591.194 448.232 589.567 449.084C588.058 449.875 585.8 450.438 583.17 450.438C580.539 450.438 578.281 449.875 576.773 449.084C575.145 448.232 574.982 447.49 574.982 447.34C574.982 447.191 575.145 446.449 576.773 445.596C578.281 444.806 580.539 444.242 583.17 444.242C585.8 444.242 588.058 444.806 589.567 445.596C591.194 446.449 591.357 447.191 591.357 447.34Z" stroke="black" stroke-width="5"/>
<path d="M588.303 435.126C588.303 435.276 588.14 436.018 586.513 436.87C585.004 437.661 582.747 438.225 580.116 438.225C577.485 438.225 575.228 437.661 573.719 436.87C572.092 436.018 571.929 435.276 571.929 435.126C571.929 434.977 572.092 434.235 573.719 433.383C575.228 432.592 577.485 432.028 580.116 432.028C582.747 432.028 585.004 432.592 586.513 433.383C588.14 434.235 588.303 434.977 588.303 435.126Z" stroke="black" stroke-width="5"/>
<path d="M585.25 422.913C585.25 423.062 585.087 423.804 583.459 424.656C581.951 425.447 579.693 426.011 577.062 426.011C574.432 426.011 572.174 425.447 570.665 424.656C569.038 423.804 568.875 423.062 568.875 422.913C568.875 422.763 569.038 422.021 570.665 421.169C572.174 420.378 574.432 419.814 577.062 419.814C579.693 419.814 581.951 420.378 583.459 421.169C585.087 422.021 585.25 422.763 585.25 422.913Z" stroke="black" stroke-width="5"/>
<path d="M555.179 476.858L550.38 446.622C550.216 445.591 550.873 444.608 551.888 444.364L560.774 442.232C561.884 441.965 562.992 442.681 563.205 443.802L577.063 516.553" stroke="black" stroke-width="5" stroke-linecap="round"/>
<path d="M584.696 558.285C613.874 549.803 681.493 527.852 720.578 479.402" stroke="black" stroke-width="5" stroke-linecap="round"/>
<path d="M611.16 381.181C619.642 378.297 634.062 371.002 642.204 354.208" stroke="black" stroke-width="5" stroke-linecap="round"/>
<path d="M746.046 400.068C741.513 402.137 733.981 408.177 729.725 411.857C729.22 412.294 728.437 412.129 728.154 411.524L697.544 346.193C697.055 345.149 698.43 344.242 699.197 345.105L746.48 398.298C746.973 398.852 746.721 399.76 746.046 400.068Z" fill="#A0A0A0"/>
<path d="M727.41 411.072C720.26 402.118 692.933 368.942 678.561 351.533C678.102 350.977 677.974 350.22 678.334 349.595C680.923 345.099 688.546 341.313 693.547 340.171C694.214 340.018 694.899 340.268 695.353 340.78L745.409 397.093C746.395 398.202 745.907 400.082 744.608 400.799C740.279 403.188 734.218 408.014 730.335 411.332C729.455 412.085 728.133 411.977 727.41 411.072Z" stroke="black" stroke-width="5" stroke-linecap="round"/>
<ellipse cx="851.37" cy="465.662" rx="25.446" ry="25.9549" fill="#A0A0A0"/>
<path d="M742.462 335.378C745.298 306.68 762.248 248.179 807.354 240.065C808.79 239.807 810.255 240.25 811.36 241.204C822.721 251.012 846.713 269.705 869.963 281.9C873.499 283.755 873.831 288.851 870.503 291.058C840.999 310.628 792.825 348.751 787.247 378.127" stroke="#A0A0A0" stroke-width="5" stroke-linecap="round"/>
<path d="M743.988 323.673C741.292 323.673 737.406 324.466 735.131 327.104C734.58 327.744 734.676 328.672 735.231 329.309C749.667 345.865 777.958 372.085 785.349 380.09C786.135 380.941 787.467 381.025 788.411 380.353C791.11 378.433 793.475 377.881 796.116 377.285C797.486 376.976 798.054 375.383 797.221 374.252L791.826 366.931" stroke="black" stroke-width="5" stroke-linecap="round"/>
<path d="M758.747 324.691C762.649 329.441 772.793 340.57 782.157 347.084" stroke="#A0A0A0" stroke-width="5" stroke-linecap="round"/>
<path d="M762.818 304.334C768.247 311.027 782.361 326.708 795.389 335.887" stroke="#A0A0A0" stroke-width="5" stroke-linecap="round"/>
<path d="M799.461 259.549C804.889 266.242 819.003 281.923 832.032 291.102" stroke="#A0A0A0" stroke-width="5" stroke-linecap="round"/>
<path d="M766.89 283.978C774.184 292.398 793.15 312.125 810.657 323.673" stroke="#A0A0A0" stroke-width="5" stroke-linecap="round"/>
<path d="M778.086 266.674C786.229 276.174 806.382 296.395 825.924 309.423" stroke="#A0A0A0" stroke-width="5" stroke-linecap="round"/>
<path d="M851.37 498.232C858.156 499.081 872.847 497.215 877.325 482.965" stroke="black" stroke-width="5" stroke-linecap="round"/>
<path d="M700.525 184.907C700.95 184.393 701.596 184.126 702.26 184.187C723.738 186.175 756.369 183.422 760.282 167.327C764.259 150.967 749.071 144.984 740.98 144.037C710.276 139.224 669.597 141.466 669.329 167.073" stroke="#A0A0A0" stroke-width="5" stroke-linecap="round"/>
<path d="M695.132 169.471C697.099 169.471 698.694 167.876 698.694 165.908C698.694 163.941 697.099 162.346 695.132 162.346C693.164 162.346 691.569 163.941 691.569 165.908C691.569 167.876 693.164 169.471 695.132 169.471Z" fill="black"/>
<path d="M719.051 165.908C719.051 167.638 717.669 169.471 715.488 169.471C713.308 169.471 711.926 167.638 711.926 165.908C711.926 164.178 713.308 162.346 715.488 162.346C717.669 162.346 719.051 164.178 719.051 165.908Z" fill="black"/>
<path d="M736.863 169.471C738.831 169.471 740.426 167.876 740.426 165.908C740.426 163.941 738.831 162.346 736.863 162.346C734.896 162.346 733.301 163.941 733.301 165.908C733.301 167.876 734.896 169.471 736.863 169.471Z" fill="black"/>
<path d="M1072.46 218.285C1072.3 218.802 1072.36 219.351 1072.62 219.823C1081.1 235.264 1089.67 260.629 1078.88 268.8C1067.92 277.101 1058.5 267.669 1055.15 261.916C1041.58 240.503 1030.03 209.344 1049.04 200.775" stroke="#A0A0A0" stroke-width="5" stroke-linecap="round"/>
<path d="M1051.4 221.954C1052.04 223.428 1053.75 224.104 1055.22 223.464C1056.7 222.824 1057.37 221.11 1056.73 219.637C1056.09 218.163 1054.38 217.487 1052.91 218.127C1051.43 218.767 1050.76 220.48 1051.4 221.954Z" fill="black"/>
<path d="M1061.85 238.714C1060.55 239.277 1058.73 238.838 1058.02 237.204C1057.31 235.571 1058.23 233.939 1059.53 233.377C1060.82 232.814 1062.65 233.253 1063.36 234.887C1064.07 236.52 1063.14 238.151 1061.85 238.714Z" fill="black"/>
<path d="M1064.97 253.217C1065.61 254.691 1067.32 255.367 1068.8 254.727C1070.27 254.087 1070.95 252.373 1070.31 250.899C1069.67 249.425 1067.95 248.749 1066.48 249.389C1065.01 250.029 1064.33 251.743 1064.97 253.217Z" fill="black"/>
<path d="M915.414 234.878C915.899 234.52 916.195 233.968 916.23 233.366C917.087 218.295 922.283 196.168 933.624 195.073C945.204 193.956 947.751 205.074 947.577 210.773C947.749 232.529 942.086 260.493 924.548 258.09" stroke="#A0A0A0" stroke-width="5" stroke-linecap="round"/>
<path d="M932.194 241.209C932.398 239.819 931.436 238.526 930.045 238.323C928.655 238.119 927.363 239.081 927.159 240.472C926.955 241.862 927.917 243.154 929.308 243.358C930.698 243.562 931.991 242.6 932.194 241.209Z" fill="black"/>
<path d="M932.111 224.223C933.334 224.402 934.486 225.569 934.26 227.11C934.034 228.651 932.596 229.438 931.373 229.258C930.15 229.079 928.999 227.913 929.224 226.372C929.45 224.831 930.888 224.044 932.111 224.223Z" fill="black"/>
<path d="M936.325 213.011C936.529 211.62 935.567 210.328 934.176 210.124C932.786 209.921 931.493 210.883 931.29 212.273C931.086 213.664 932.048 214.956 933.439 215.16C934.829 215.364 936.121 214.401 936.325 213.011Z" fill="black"/>
<path d="M959.46 322.162C951.805 319.726 950.792 326.286 951.4 331.421C951.506 332.316 950.474 333.042 949.666 332.643C945.976 330.821 940.772 329.528 939.103 333.867C937.145 338.96 950.107 344.775 957.588 347.323C958.074 347.489 958.605 347.242 958.807 346.77C966.055 329.885 962.298 323.33 959.46 322.162Z" fill="black"/>
<path d="M859.712 110.451C852.057 108.015 851.044 114.575 851.652 119.71C851.758 120.605 850.726 121.331 849.918 120.932C846.228 119.11 841.024 117.817 839.355 122.156C837.396 127.249 850.359 133.064 857.84 135.612C858.326 135.778 858.857 135.531 859.059 135.059C866.307 118.174 862.55 111.619 859.712 110.451Z" fill="black"/>
<path d="M1026.44 330.289L1103.29 317.566" stroke="#A0A0A0" stroke-width="5" stroke-linecap="round"/>
<path d="M985.726 185.247L1061.05 127.23" stroke="#A0A0A0" stroke-width="5" stroke-linecap="round"/>
<path d="M860.531 220.871L892.593 132.319" stroke="#A0A0A0" stroke-width="5" stroke-linecap="round"/>
<path d="M805.568 171.506L799.461 123.158" stroke="#A0A0A0" stroke-width="5" stroke-linecap="round"/>
</svg>
