<svg width="33" height="33" viewBox="0 0 33 33" fill="none" xmlns="http://www.w3.org/2000/svg">
<rect width="32.003" height="32.003" fill="#2879FF"/>
<path d="M16.0013 3.03809C8.84504 3.03809 3.03711 8.84604 3.03711 16.0023C3.03711 23.1585 8.84504 28.9664 16.0013 28.9664C23.1575 28.9664 28.9655 23.1585 28.9655 16.0023C28.9655 8.84604 23.1575 3.03809 16.0013 3.03809ZM16.0013 5.63092C19.8387 5.63092 23.1834 7.71815 24.9725 10.8166H16.0013C13.4863 10.8166 11.399 12.6056 10.9193 14.9781L7.83385 9.6239C9.72663 7.19959 12.6825 5.63092 16.0013 5.63092ZM19.8905 16.0023C19.8905 18.1543 18.1534 19.8915 16.0013 19.8915C13.8492 19.8915 12.112 18.1543 12.112 16.0023C12.112 13.8502 13.8492 12.113 16.0013 12.113C18.1534 12.113 19.8905 13.8502 19.8905 16.0023ZM5.62994 16.0023C5.62994 14.1095 6.14851 12.3464 7.03007 10.8296L11.5157 18.6081L11.5286 18.5951C12.4232 20.1378 14.0826 21.1879 16.0013 21.1879C16.5847 21.1879 17.1421 21.0712 17.6736 20.8898L14.5752 26.2699C9.51922 25.5698 5.62994 21.2398 5.62994 16.0023ZM16.0013 26.3736L20.4869 18.5951L20.461 18.5821C20.9147 17.8173 21.187 16.9486 21.187 16.0023C21.187 14.4466 20.4869 13.0594 19.3979 12.113H25.6077C26.1004 13.3187 26.3726 14.628 26.3726 16.0023C26.3726 21.7324 21.7315 26.3736 16.0013 26.3736Z" fill="white"/>
</svg>
